M48
INCH
T1C0.0157
T2C0.0315
T3C0.0394
T4C0.0433
%
G90
G05
T1
X6.3786Y-3.3871
X6.3806Y-3.5115
X6.3818Y-3.1829
X6.5622Y-3.1089
X6.7069Y-3.3686
X6.7467Y-2.977
X6.8757Y-3.407
T2
X6.386Y-2.8426
X6.486Y-2.8426
X6.4976Y-2.6212
X6.586Y-2.8426
X6.596Y-2.6212
X6.7471Y-2.6712
X6.944Y-2.6712
T3
X6.3812Y-3.5994
X6.9628Y-2.9635
X6.9628Y-3.0635
X6.9628Y-3.1635
X6.9812Y-3.5994
T4
X6.4363Y-3.0748
X6.8363Y-3.0748
M30
