%TF.GenerationSoftware,KiCad,Pcbnew,8.0.1-rc1*%
%TF.CreationDate,2024-11-19T18:39:50-08:00*%
%TF.ProjectId,LM2597-Adj,4c4d3235-3937-42d4-9164-6a2e6b696361,rev?*%
%TF.SameCoordinates,Original*%
%TF.FileFunction,Legend,Top*%
%TF.FilePolarity,Positive*%
%FSLAX46Y46*%
G04 Gerber Fmt 4.6, Leading zero omitted, Abs format (unit mm)*
G04 Created by KiCad (PCBNEW 8.0.1-rc1) date 2024-11-19 18:39:50*
%MOMM*%
%LPD*%
G01*
G04 APERTURE LIST*
%ADD10C,0.150000*%
%ADD11C,0.254000*%
%ADD12C,0.120000*%
%ADD13C,0.200000*%
%ADD14C,1.440000*%
%ADD15R,2.200000X2.200000*%
%ADD16O,2.200000X2.200000*%
%ADD17R,1.600000X1.600000*%
%ADD18C,1.600000*%
%ADD19R,1.700000X1.700000*%
%ADD20O,1.700000X1.700000*%
%ADD21C,2.000000*%
%ADD22O,2.000000X2.000000*%
%ADD23R,1.528000X0.650000*%
G04 APERTURE END LIST*
D10*
X160276990Y-95038246D02*
X159800800Y-95038246D01*
X159800800Y-95038246D02*
X159800800Y-94038246D01*
X160610324Y-95038246D02*
X160610324Y-94038246D01*
X160610324Y-94038246D02*
X160943657Y-94752531D01*
X160943657Y-94752531D02*
X161276990Y-94038246D01*
X161276990Y-94038246D02*
X161276990Y-95038246D01*
X161705562Y-94133484D02*
X161753181Y-94085865D01*
X161753181Y-94085865D02*
X161848419Y-94038246D01*
X161848419Y-94038246D02*
X162086514Y-94038246D01*
X162086514Y-94038246D02*
X162181752Y-94085865D01*
X162181752Y-94085865D02*
X162229371Y-94133484D01*
X162229371Y-94133484D02*
X162276990Y-94228722D01*
X162276990Y-94228722D02*
X162276990Y-94323960D01*
X162276990Y-94323960D02*
X162229371Y-94466817D01*
X162229371Y-94466817D02*
X161657943Y-95038246D01*
X161657943Y-95038246D02*
X162276990Y-95038246D01*
X163181752Y-94038246D02*
X162705562Y-94038246D01*
X162705562Y-94038246D02*
X162657943Y-94514436D01*
X162657943Y-94514436D02*
X162705562Y-94466817D01*
X162705562Y-94466817D02*
X162800800Y-94419198D01*
X162800800Y-94419198D02*
X163038895Y-94419198D01*
X163038895Y-94419198D02*
X163134133Y-94466817D01*
X163134133Y-94466817D02*
X163181752Y-94514436D01*
X163181752Y-94514436D02*
X163229371Y-94609674D01*
X163229371Y-94609674D02*
X163229371Y-94847769D01*
X163229371Y-94847769D02*
X163181752Y-94943007D01*
X163181752Y-94943007D02*
X163134133Y-94990627D01*
X163134133Y-94990627D02*
X163038895Y-95038246D01*
X163038895Y-95038246D02*
X162800800Y-95038246D01*
X162800800Y-95038246D02*
X162705562Y-94990627D01*
X162705562Y-94990627D02*
X162657943Y-94943007D01*
X163705562Y-95038246D02*
X163896038Y-95038246D01*
X163896038Y-95038246D02*
X163991276Y-94990627D01*
X163991276Y-94990627D02*
X164038895Y-94943007D01*
X164038895Y-94943007D02*
X164134133Y-94800150D01*
X164134133Y-94800150D02*
X164181752Y-94609674D01*
X164181752Y-94609674D02*
X164181752Y-94228722D01*
X164181752Y-94228722D02*
X164134133Y-94133484D01*
X164134133Y-94133484D02*
X164086514Y-94085865D01*
X164086514Y-94085865D02*
X163991276Y-94038246D01*
X163991276Y-94038246D02*
X163800800Y-94038246D01*
X163800800Y-94038246D02*
X163705562Y-94085865D01*
X163705562Y-94085865D02*
X163657943Y-94133484D01*
X163657943Y-94133484D02*
X163610324Y-94228722D01*
X163610324Y-94228722D02*
X163610324Y-94466817D01*
X163610324Y-94466817D02*
X163657943Y-94562055D01*
X163657943Y-94562055D02*
X163705562Y-94609674D01*
X163705562Y-94609674D02*
X163800800Y-94657293D01*
X163800800Y-94657293D02*
X163991276Y-94657293D01*
X163991276Y-94657293D02*
X164086514Y-94609674D01*
X164086514Y-94609674D02*
X164134133Y-94562055D01*
X164134133Y-94562055D02*
X164181752Y-94466817D01*
X164800800Y-94038246D02*
X164896038Y-94038246D01*
X164896038Y-94038246D02*
X164991276Y-94085865D01*
X164991276Y-94085865D02*
X165038895Y-94133484D01*
X165038895Y-94133484D02*
X165086514Y-94228722D01*
X165086514Y-94228722D02*
X165134133Y-94419198D01*
X165134133Y-94419198D02*
X165134133Y-94657293D01*
X165134133Y-94657293D02*
X165086514Y-94847769D01*
X165086514Y-94847769D02*
X165038895Y-94943007D01*
X165038895Y-94943007D02*
X164991276Y-94990627D01*
X164991276Y-94990627D02*
X164896038Y-95038246D01*
X164896038Y-95038246D02*
X164800800Y-95038246D01*
X164800800Y-95038246D02*
X164705562Y-94990627D01*
X164705562Y-94990627D02*
X164657943Y-94943007D01*
X164657943Y-94943007D02*
X164610324Y-94847769D01*
X164610324Y-94847769D02*
X164562705Y-94657293D01*
X164562705Y-94657293D02*
X164562705Y-94419198D01*
X164562705Y-94419198D02*
X164610324Y-94228722D01*
X164610324Y-94228722D02*
X164657943Y-94133484D01*
X164657943Y-94133484D02*
X164705562Y-94085865D01*
X164705562Y-94085865D02*
X164800800Y-94038246D01*
X165562705Y-94657293D02*
X166324610Y-94657293D01*
X166753181Y-94752531D02*
X167229371Y-94752531D01*
X166657943Y-95038246D02*
X166991276Y-94038246D01*
X166991276Y-94038246D02*
X167324609Y-95038246D01*
X168086514Y-95038246D02*
X168086514Y-94038246D01*
X168086514Y-94990627D02*
X167991276Y-95038246D01*
X167991276Y-95038246D02*
X167800800Y-95038246D01*
X167800800Y-95038246D02*
X167705562Y-94990627D01*
X167705562Y-94990627D02*
X167657943Y-94943007D01*
X167657943Y-94943007D02*
X167610324Y-94847769D01*
X167610324Y-94847769D02*
X167610324Y-94562055D01*
X167610324Y-94562055D02*
X167657943Y-94466817D01*
X167657943Y-94466817D02*
X167705562Y-94419198D01*
X167705562Y-94419198D02*
X167800800Y-94371579D01*
X167800800Y-94371579D02*
X167991276Y-94371579D01*
X167991276Y-94371579D02*
X168086514Y-94419198D01*
X168562705Y-94371579D02*
X168562705Y-95228722D01*
X168562705Y-95228722D02*
X168515086Y-95323960D01*
X168515086Y-95323960D02*
X168419848Y-95371579D01*
X168419848Y-95371579D02*
X168372229Y-95371579D01*
X168562705Y-94038246D02*
X168515086Y-94085865D01*
X168515086Y-94085865D02*
X168562705Y-94133484D01*
X168562705Y-94133484D02*
X168610324Y-94085865D01*
X168610324Y-94085865D02*
X168562705Y-94038246D01*
X168562705Y-94038246D02*
X168562705Y-94133484D01*
X170487544Y-74548344D02*
X170154211Y-74072153D01*
X169916116Y-74548344D02*
X169916116Y-73548344D01*
X169916116Y-73548344D02*
X170297068Y-73548344D01*
X170297068Y-73548344D02*
X170392306Y-73595963D01*
X170392306Y-73595963D02*
X170439925Y-73643582D01*
X170439925Y-73643582D02*
X170487544Y-73738820D01*
X170487544Y-73738820D02*
X170487544Y-73881677D01*
X170487544Y-73881677D02*
X170439925Y-73976915D01*
X170439925Y-73976915D02*
X170392306Y-74024534D01*
X170392306Y-74024534D02*
X170297068Y-74072153D01*
X170297068Y-74072153D02*
X169916116Y-74072153D01*
X170773259Y-73548344D02*
X171106592Y-74548344D01*
X171106592Y-74548344D02*
X171439925Y-73548344D01*
X172297068Y-74548344D02*
X171725640Y-74548344D01*
X172011354Y-74548344D02*
X172011354Y-73548344D01*
X172011354Y-73548344D02*
X171916116Y-73691201D01*
X171916116Y-73691201D02*
X171820878Y-73786439D01*
X171820878Y-73786439D02*
X171725640Y-73834058D01*
X167823456Y-76085691D02*
X167823456Y-75085691D01*
X167823456Y-75085691D02*
X168061551Y-75085691D01*
X168061551Y-75085691D02*
X168204408Y-75133310D01*
X168204408Y-75133310D02*
X168299646Y-75228548D01*
X168299646Y-75228548D02*
X168347265Y-75323786D01*
X168347265Y-75323786D02*
X168394884Y-75514262D01*
X168394884Y-75514262D02*
X168394884Y-75657119D01*
X168394884Y-75657119D02*
X168347265Y-75847595D01*
X168347265Y-75847595D02*
X168299646Y-75942833D01*
X168299646Y-75942833D02*
X168204408Y-76038072D01*
X168204408Y-76038072D02*
X168061551Y-76085691D01*
X168061551Y-76085691D02*
X167823456Y-76085691D01*
X169347265Y-76085691D02*
X168775837Y-76085691D01*
X169061551Y-76085691D02*
X169061551Y-75085691D01*
X169061551Y-75085691D02*
X168966313Y-75228548D01*
X168966313Y-75228548D02*
X168871075Y-75323786D01*
X168871075Y-75323786D02*
X168775837Y-75371405D01*
X163219646Y-76455691D02*
X163219646Y-75455691D01*
X163791074Y-76455691D02*
X163362503Y-75884262D01*
X163791074Y-75455691D02*
X163219646Y-76027119D01*
X169565685Y-64619942D02*
X169518066Y-64667562D01*
X169518066Y-64667562D02*
X169375209Y-64715181D01*
X169375209Y-64715181D02*
X169279971Y-64715181D01*
X169279971Y-64715181D02*
X169137114Y-64667562D01*
X169137114Y-64667562D02*
X169041876Y-64572323D01*
X169041876Y-64572323D02*
X168994257Y-64477085D01*
X168994257Y-64477085D02*
X168946638Y-64286609D01*
X168946638Y-64286609D02*
X168946638Y-64143752D01*
X168946638Y-64143752D02*
X168994257Y-63953276D01*
X168994257Y-63953276D02*
X169041876Y-63858038D01*
X169041876Y-63858038D02*
X169137114Y-63762800D01*
X169137114Y-63762800D02*
X169279971Y-63715181D01*
X169279971Y-63715181D02*
X169375209Y-63715181D01*
X169375209Y-63715181D02*
X169518066Y-63762800D01*
X169518066Y-63762800D02*
X169565685Y-63810419D01*
X170470447Y-63715181D02*
X169994257Y-63715181D01*
X169994257Y-63715181D02*
X169946638Y-64191371D01*
X169946638Y-64191371D02*
X169994257Y-64143752D01*
X169994257Y-64143752D02*
X170089495Y-64096133D01*
X170089495Y-64096133D02*
X170327590Y-64096133D01*
X170327590Y-64096133D02*
X170422828Y-64143752D01*
X170422828Y-64143752D02*
X170470447Y-64191371D01*
X170470447Y-64191371D02*
X170518066Y-64286609D01*
X170518066Y-64286609D02*
X170518066Y-64524704D01*
X170518066Y-64524704D02*
X170470447Y-64619942D01*
X170470447Y-64619942D02*
X170422828Y-64667562D01*
X170422828Y-64667562D02*
X170327590Y-64715181D01*
X170327590Y-64715181D02*
X170089495Y-64715181D01*
X170089495Y-64715181D02*
X169994257Y-64667562D01*
X169994257Y-64667562D02*
X169946638Y-64619942D01*
X176521874Y-82137589D02*
X176521874Y-82851874D01*
X176521874Y-82851874D02*
X176474255Y-82994731D01*
X176474255Y-82994731D02*
X176379017Y-83089970D01*
X176379017Y-83089970D02*
X176236160Y-83137589D01*
X176236160Y-83137589D02*
X176140922Y-83137589D01*
X177521874Y-83137589D02*
X176950446Y-83137589D01*
X177236160Y-83137589D02*
X177236160Y-82137589D01*
X177236160Y-82137589D02*
X177140922Y-82280446D01*
X177140922Y-82280446D02*
X177045684Y-82375684D01*
X177045684Y-82375684D02*
X176950446Y-82423303D01*
X176191305Y-94877599D02*
X175715115Y-94877599D01*
X175715115Y-94877599D02*
X175715115Y-93877599D01*
X177048448Y-94877599D02*
X176477020Y-94877599D01*
X176762734Y-94877599D02*
X176762734Y-93877599D01*
X176762734Y-93877599D02*
X176667496Y-94020456D01*
X176667496Y-94020456D02*
X176572258Y-94115694D01*
X176572258Y-94115694D02*
X176477020Y-94163313D01*
D11*
X166321814Y-81696345D02*
X166321814Y-80426345D01*
X167652291Y-81575392D02*
X167591815Y-81635869D01*
X167591815Y-81635869D02*
X167410386Y-81696345D01*
X167410386Y-81696345D02*
X167289434Y-81696345D01*
X167289434Y-81696345D02*
X167108005Y-81635869D01*
X167108005Y-81635869D02*
X166987053Y-81514916D01*
X166987053Y-81514916D02*
X166926576Y-81393964D01*
X166926576Y-81393964D02*
X166866100Y-81152059D01*
X166866100Y-81152059D02*
X166866100Y-80970630D01*
X166866100Y-80970630D02*
X166926576Y-80728726D01*
X166926576Y-80728726D02*
X166987053Y-80607773D01*
X166987053Y-80607773D02*
X167108005Y-80486821D01*
X167108005Y-80486821D02*
X167289434Y-80426345D01*
X167289434Y-80426345D02*
X167410386Y-80426345D01*
X167410386Y-80426345D02*
X167591815Y-80486821D01*
X167591815Y-80486821D02*
X167652291Y-80547297D01*
X168861815Y-81696345D02*
X168136100Y-81696345D01*
X168498957Y-81696345D02*
X168498957Y-80426345D01*
X168498957Y-80426345D02*
X168378005Y-80607773D01*
X168378005Y-80607773D02*
X168257053Y-80728726D01*
X168257053Y-80728726D02*
X168136100Y-80789202D01*
D10*
X162330424Y-64581520D02*
X162282805Y-64629140D01*
X162282805Y-64629140D02*
X162139948Y-64676759D01*
X162139948Y-64676759D02*
X162044710Y-64676759D01*
X162044710Y-64676759D02*
X161901853Y-64629140D01*
X161901853Y-64629140D02*
X161806615Y-64533901D01*
X161806615Y-64533901D02*
X161758996Y-64438663D01*
X161758996Y-64438663D02*
X161711377Y-64248187D01*
X161711377Y-64248187D02*
X161711377Y-64105330D01*
X161711377Y-64105330D02*
X161758996Y-63914854D01*
X161758996Y-63914854D02*
X161806615Y-63819616D01*
X161806615Y-63819616D02*
X161901853Y-63724378D01*
X161901853Y-63724378D02*
X162044710Y-63676759D01*
X162044710Y-63676759D02*
X162139948Y-63676759D01*
X162139948Y-63676759D02*
X162282805Y-63724378D01*
X162282805Y-63724378D02*
X162330424Y-63771997D01*
X163187567Y-64010092D02*
X163187567Y-64676759D01*
X162949472Y-63629140D02*
X162711377Y-64343425D01*
X162711377Y-64343425D02*
X163330424Y-64343425D01*
D12*
%TO.C,RV1*%
X159860208Y-69672558D02*
X159860208Y-74742558D01*
X159860208Y-69672558D02*
X169630208Y-69672558D01*
X159860208Y-74742558D02*
X169630208Y-74742558D01*
X169630208Y-69672558D02*
X169630208Y-74742558D01*
%TO.C,D1*%
X164821551Y-78100872D02*
X165841551Y-78100872D01*
X165841551Y-76630872D02*
X165841551Y-79570872D01*
X165841551Y-79570872D02*
X171281551Y-79570872D01*
X166621551Y-76630872D02*
X166621551Y-79570872D01*
X166741551Y-76630872D02*
X166741551Y-79570872D01*
X166861551Y-76630872D02*
X166861551Y-79570872D01*
X171281551Y-76630872D02*
X165841551Y-76630872D01*
X171281551Y-79570872D02*
X171281551Y-76630872D01*
X172301551Y-78100872D02*
X171281551Y-78100872D01*
%TO.C,C5*%
X169467217Y-65533426D02*
X170267217Y-65533426D01*
X169867217Y-65133426D02*
X169867217Y-65933426D01*
X173876915Y-63768426D02*
X173876915Y-71928426D01*
X173916915Y-63768426D02*
X173916915Y-71928426D01*
X173956915Y-63768426D02*
X173956915Y-71928426D01*
X173996915Y-63769426D02*
X173996915Y-71927426D01*
X174036915Y-63771426D02*
X174036915Y-71925426D01*
X174076915Y-63772426D02*
X174076915Y-71924426D01*
X174116915Y-63774426D02*
X174116915Y-71922426D01*
X174156915Y-63777426D02*
X174156915Y-71919426D01*
X174196915Y-63780426D02*
X174196915Y-71916426D01*
X174236915Y-63783426D02*
X174236915Y-71913426D01*
X174276915Y-63787426D02*
X174276915Y-71909426D01*
X174316915Y-63791426D02*
X174316915Y-71905426D01*
X174356915Y-63796426D02*
X174356915Y-71900426D01*
X174396915Y-63800426D02*
X174396915Y-71896426D01*
X174436915Y-63806426D02*
X174436915Y-71890426D01*
X174476915Y-63811426D02*
X174476915Y-71885426D01*
X174516915Y-63818426D02*
X174516915Y-71878426D01*
X174556915Y-63824426D02*
X174556915Y-71872426D01*
X174597915Y-63831426D02*
X174597915Y-71865426D01*
X174637915Y-63838426D02*
X174637915Y-71858426D01*
X174677915Y-63846426D02*
X174677915Y-71850426D01*
X174717915Y-63854426D02*
X174717915Y-71842426D01*
X174757915Y-63863426D02*
X174757915Y-71833426D01*
X174797915Y-63872426D02*
X174797915Y-71824426D01*
X174837915Y-63881426D02*
X174837915Y-71815426D01*
X174877915Y-63891426D02*
X174877915Y-71805426D01*
X174917915Y-63901426D02*
X174917915Y-71795426D01*
X174957915Y-63912426D02*
X174957915Y-71784426D01*
X174997915Y-63923426D02*
X174997915Y-71773426D01*
X175037915Y-63934426D02*
X175037915Y-71762426D01*
X175077915Y-63946426D02*
X175077915Y-71750426D01*
X175117915Y-63959426D02*
X175117915Y-71737426D01*
X175157915Y-63971426D02*
X175157915Y-71725426D01*
X175197915Y-63985426D02*
X175197915Y-71711426D01*
X175237915Y-63998426D02*
X175237915Y-71698426D01*
X175277915Y-64013426D02*
X175277915Y-71683426D01*
X175317915Y-64027426D02*
X175317915Y-71669426D01*
X175357915Y-64043426D02*
X175357915Y-66808426D01*
X175357915Y-68888426D02*
X175357915Y-71653426D01*
X175397915Y-64058426D02*
X175397915Y-66808426D01*
X175397915Y-68888426D02*
X175397915Y-71638426D01*
X175437915Y-64074426D02*
X175437915Y-66808426D01*
X175437915Y-68888426D02*
X175437915Y-71622426D01*
X175477915Y-64091426D02*
X175477915Y-66808426D01*
X175477915Y-68888426D02*
X175477915Y-71605426D01*
X175517915Y-64108426D02*
X175517915Y-66808426D01*
X175517915Y-68888426D02*
X175517915Y-71588426D01*
X175557915Y-64126426D02*
X175557915Y-66808426D01*
X175557915Y-68888426D02*
X175557915Y-71570426D01*
X175597915Y-64144426D02*
X175597915Y-66808426D01*
X175597915Y-68888426D02*
X175597915Y-71552426D01*
X175637915Y-64162426D02*
X175637915Y-66808426D01*
X175637915Y-68888426D02*
X175637915Y-71534426D01*
X175677915Y-64182426D02*
X175677915Y-66808426D01*
X175677915Y-68888426D02*
X175677915Y-71514426D01*
X175717915Y-64201426D02*
X175717915Y-66808426D01*
X175717915Y-68888426D02*
X175717915Y-71495426D01*
X175757915Y-64221426D02*
X175757915Y-66808426D01*
X175757915Y-68888426D02*
X175757915Y-71475426D01*
X175797915Y-64242426D02*
X175797915Y-66808426D01*
X175797915Y-68888426D02*
X175797915Y-71454426D01*
X175837915Y-64264426D02*
X175837915Y-66808426D01*
X175837915Y-68888426D02*
X175837915Y-71432426D01*
X175877915Y-64286426D02*
X175877915Y-66808426D01*
X175877915Y-68888426D02*
X175877915Y-71410426D01*
X175917915Y-64308426D02*
X175917915Y-66808426D01*
X175917915Y-68888426D02*
X175917915Y-71388426D01*
X175957915Y-64331426D02*
X175957915Y-66808426D01*
X175957915Y-68888426D02*
X175957915Y-71365426D01*
X175997915Y-64355426D02*
X175997915Y-66808426D01*
X175997915Y-68888426D02*
X175997915Y-71341426D01*
X176037915Y-64379426D02*
X176037915Y-66808426D01*
X176037915Y-68888426D02*
X176037915Y-71317426D01*
X176077915Y-64404426D02*
X176077915Y-66808426D01*
X176077915Y-68888426D02*
X176077915Y-71292426D01*
X176117915Y-64430426D02*
X176117915Y-66808426D01*
X176117915Y-68888426D02*
X176117915Y-71266426D01*
X176157915Y-64456426D02*
X176157915Y-66808426D01*
X176157915Y-68888426D02*
X176157915Y-71240426D01*
X176197915Y-64483426D02*
X176197915Y-66808426D01*
X176197915Y-68888426D02*
X176197915Y-71213426D01*
X176237915Y-64510426D02*
X176237915Y-66808426D01*
X176237915Y-68888426D02*
X176237915Y-71186426D01*
X176277915Y-64539426D02*
X176277915Y-66808426D01*
X176277915Y-68888426D02*
X176277915Y-71157426D01*
X176317915Y-64568426D02*
X176317915Y-66808426D01*
X176317915Y-68888426D02*
X176317915Y-71128426D01*
X176357915Y-64598426D02*
X176357915Y-66808426D01*
X176357915Y-68888426D02*
X176357915Y-71098426D01*
X176397915Y-64628426D02*
X176397915Y-66808426D01*
X176397915Y-68888426D02*
X176397915Y-71068426D01*
X176437915Y-64659426D02*
X176437915Y-66808426D01*
X176437915Y-68888426D02*
X176437915Y-71037426D01*
X176477915Y-64692426D02*
X176477915Y-66808426D01*
X176477915Y-68888426D02*
X176477915Y-71004426D01*
X176517915Y-64724426D02*
X176517915Y-66808426D01*
X176517915Y-68888426D02*
X176517915Y-70972426D01*
X176557915Y-64758426D02*
X176557915Y-66808426D01*
X176557915Y-68888426D02*
X176557915Y-70938426D01*
X176597915Y-64793426D02*
X176597915Y-66808426D01*
X176597915Y-68888426D02*
X176597915Y-70903426D01*
X176637915Y-64829426D02*
X176637915Y-66808426D01*
X176637915Y-68888426D02*
X176637915Y-70867426D01*
X176677915Y-64865426D02*
X176677915Y-66808426D01*
X176677915Y-68888426D02*
X176677915Y-70831426D01*
X176717915Y-64903426D02*
X176717915Y-66808426D01*
X176717915Y-68888426D02*
X176717915Y-70793426D01*
X176757915Y-64941426D02*
X176757915Y-66808426D01*
X176757915Y-68888426D02*
X176757915Y-70755426D01*
X176797915Y-64981426D02*
X176797915Y-66808426D01*
X176797915Y-68888426D02*
X176797915Y-70715426D01*
X176837915Y-65022426D02*
X176837915Y-66808426D01*
X176837915Y-68888426D02*
X176837915Y-70674426D01*
X176877915Y-65064426D02*
X176877915Y-66808426D01*
X176877915Y-68888426D02*
X176877915Y-70632426D01*
X176917915Y-65107426D02*
X176917915Y-66808426D01*
X176917915Y-68888426D02*
X176917915Y-70589426D01*
X176957915Y-65151426D02*
X176957915Y-66808426D01*
X176957915Y-68888426D02*
X176957915Y-70545426D01*
X176997915Y-65197426D02*
X176997915Y-66808426D01*
X176997915Y-68888426D02*
X176997915Y-70499426D01*
X177037915Y-65244426D02*
X177037915Y-66808426D01*
X177037915Y-68888426D02*
X177037915Y-70452426D01*
X177077915Y-65292426D02*
X177077915Y-66808426D01*
X177077915Y-68888426D02*
X177077915Y-70404426D01*
X177117915Y-65343426D02*
X177117915Y-66808426D01*
X177117915Y-68888426D02*
X177117915Y-70353426D01*
X177157915Y-65394426D02*
X177157915Y-66808426D01*
X177157915Y-68888426D02*
X177157915Y-70302426D01*
X177197915Y-65448426D02*
X177197915Y-66808426D01*
X177197915Y-68888426D02*
X177197915Y-70248426D01*
X177237915Y-65503426D02*
X177237915Y-66808426D01*
X177237915Y-68888426D02*
X177237915Y-70193426D01*
X177277915Y-65561426D02*
X177277915Y-66808426D01*
X177277915Y-68888426D02*
X177277915Y-70135426D01*
X177317915Y-65620426D02*
X177317915Y-66808426D01*
X177317915Y-68888426D02*
X177317915Y-70076426D01*
X177357915Y-65682426D02*
X177357915Y-66808426D01*
X177357915Y-68888426D02*
X177357915Y-70014426D01*
X177397915Y-65746426D02*
X177397915Y-66808426D01*
X177397915Y-68888426D02*
X177397915Y-69950426D01*
X177437915Y-65814426D02*
X177437915Y-69882426D01*
X177477915Y-65884426D02*
X177477915Y-69812426D01*
X177517915Y-65958426D02*
X177517915Y-69738426D01*
X177557915Y-66035426D02*
X177557915Y-69661426D01*
X177597915Y-66117426D02*
X177597915Y-69579426D01*
X177637915Y-66203426D02*
X177637915Y-69493426D01*
X177677915Y-66296426D02*
X177677915Y-69400426D01*
X177717915Y-66395426D02*
X177717915Y-69301426D01*
X177757915Y-66502426D02*
X177757915Y-69194426D01*
X177797915Y-66619426D02*
X177797915Y-69077426D01*
X177837915Y-66750426D02*
X177837915Y-68946426D01*
X177877915Y-66900426D02*
X177877915Y-68796426D01*
X177917915Y-67080426D02*
X177917915Y-68616426D01*
X177957915Y-67315426D02*
X177957915Y-68381426D01*
X177996915Y-67848426D02*
G75*
G02*
X169756915Y-67848426I-4120000J0D01*
G01*
X169756915Y-67848426D02*
G75*
G02*
X177996915Y-67848426I4120000J0D01*
G01*
%TO.C,J1*%
X175525208Y-79082770D02*
X175525208Y-73942770D01*
X178185208Y-73942770D02*
X175525208Y-73942770D01*
X178185208Y-79082770D02*
X175525208Y-79082770D01*
X178185208Y-79082770D02*
X178185208Y-73942770D01*
X178185208Y-80352770D02*
X178185208Y-81682770D01*
X178185208Y-81682770D02*
X176855208Y-81682770D01*
%TO.C,L1*%
X163322931Y-91424700D02*
X164832931Y-91424700D01*
X164832931Y-89304700D02*
X164832931Y-93544700D01*
X164832931Y-93544700D02*
X174572931Y-93544700D01*
X174572931Y-89304700D02*
X164832931Y-89304700D01*
X174572931Y-93544700D02*
X174572931Y-89304700D01*
X176082931Y-91424700D02*
X174572931Y-91424700D01*
D13*
%TO.C,IC1*%
X164111831Y-82322863D02*
X165638831Y-82322863D01*
X165988831Y-82450863D02*
X169184831Y-82450863D01*
X165988831Y-87354863D02*
X165988831Y-82450863D01*
X169184831Y-82450863D02*
X169184831Y-87354863D01*
X169184831Y-87354863D02*
X165988831Y-87354863D01*
D12*
%TO.C,C4*%
X163483490Y-65102536D02*
X163983490Y-65102536D01*
X163733490Y-64852536D02*
X163733490Y-65352536D01*
X166288265Y-63997536D02*
X166288265Y-69157536D01*
X166328265Y-63997536D02*
X166328265Y-69157536D01*
X166368265Y-63998536D02*
X166368265Y-69156536D01*
X166408265Y-63999536D02*
X166408265Y-69155536D01*
X166448265Y-64001536D02*
X166448265Y-69153536D01*
X166488265Y-64004536D02*
X166488265Y-69150536D01*
X166528265Y-64008536D02*
X166528265Y-65537536D01*
X166528265Y-67617536D02*
X166528265Y-69146536D01*
X166568265Y-64012536D02*
X166568265Y-65537536D01*
X166568265Y-67617536D02*
X166568265Y-69142536D01*
X166608265Y-64016536D02*
X166608265Y-65537536D01*
X166608265Y-67617536D02*
X166608265Y-69138536D01*
X166648265Y-64021536D02*
X166648265Y-65537536D01*
X166648265Y-67617536D02*
X166648265Y-69133536D01*
X166688265Y-64027536D02*
X166688265Y-65537536D01*
X166688265Y-67617536D02*
X166688265Y-69127536D01*
X166728265Y-64034536D02*
X166728265Y-65537536D01*
X166728265Y-67617536D02*
X166728265Y-69120536D01*
X166768265Y-64041536D02*
X166768265Y-65537536D01*
X166768265Y-67617536D02*
X166768265Y-69113536D01*
X166808265Y-64049536D02*
X166808265Y-65537536D01*
X166808265Y-67617536D02*
X166808265Y-69105536D01*
X166848265Y-64057536D02*
X166848265Y-65537536D01*
X166848265Y-67617536D02*
X166848265Y-69097536D01*
X166888265Y-64066536D02*
X166888265Y-65537536D01*
X166888265Y-67617536D02*
X166888265Y-69088536D01*
X166928265Y-64076536D02*
X166928265Y-65537536D01*
X166928265Y-67617536D02*
X166928265Y-69078536D01*
X166968265Y-64086536D02*
X166968265Y-65537536D01*
X166968265Y-67617536D02*
X166968265Y-69068536D01*
X167009265Y-64097536D02*
X167009265Y-65537536D01*
X167009265Y-67617536D02*
X167009265Y-69057536D01*
X167049265Y-64109536D02*
X167049265Y-65537536D01*
X167049265Y-67617536D02*
X167049265Y-69045536D01*
X167089265Y-64122536D02*
X167089265Y-65537536D01*
X167089265Y-67617536D02*
X167089265Y-69032536D01*
X167129265Y-64135536D02*
X167129265Y-65537536D01*
X167129265Y-67617536D02*
X167129265Y-69019536D01*
X167169265Y-64149536D02*
X167169265Y-65537536D01*
X167169265Y-67617536D02*
X167169265Y-69005536D01*
X167209265Y-64163536D02*
X167209265Y-65537536D01*
X167209265Y-67617536D02*
X167209265Y-68991536D01*
X167249265Y-64179536D02*
X167249265Y-65537536D01*
X167249265Y-67617536D02*
X167249265Y-68975536D01*
X167289265Y-64195536D02*
X167289265Y-65537536D01*
X167289265Y-67617536D02*
X167289265Y-68959536D01*
X167329265Y-64212536D02*
X167329265Y-65537536D01*
X167329265Y-67617536D02*
X167329265Y-68942536D01*
X167369265Y-64229536D02*
X167369265Y-65537536D01*
X167369265Y-67617536D02*
X167369265Y-68925536D01*
X167409265Y-64248536D02*
X167409265Y-65537536D01*
X167409265Y-67617536D02*
X167409265Y-68906536D01*
X167449265Y-64267536D02*
X167449265Y-65537536D01*
X167449265Y-67617536D02*
X167449265Y-68887536D01*
X167489265Y-64287536D02*
X167489265Y-65537536D01*
X167489265Y-67617536D02*
X167489265Y-68867536D01*
X167529265Y-64309536D02*
X167529265Y-65537536D01*
X167529265Y-67617536D02*
X167529265Y-68845536D01*
X167569265Y-64330536D02*
X167569265Y-65537536D01*
X167569265Y-67617536D02*
X167569265Y-68824536D01*
X167609265Y-64353536D02*
X167609265Y-65537536D01*
X167609265Y-67617536D02*
X167609265Y-68801536D01*
X167649265Y-64377536D02*
X167649265Y-65537536D01*
X167649265Y-67617536D02*
X167649265Y-68777536D01*
X167689265Y-64402536D02*
X167689265Y-65537536D01*
X167689265Y-67617536D02*
X167689265Y-68752536D01*
X167729265Y-64428536D02*
X167729265Y-65537536D01*
X167729265Y-67617536D02*
X167729265Y-68726536D01*
X167769265Y-64455536D02*
X167769265Y-65537536D01*
X167769265Y-67617536D02*
X167769265Y-68699536D01*
X167809265Y-64482536D02*
X167809265Y-65537536D01*
X167809265Y-67617536D02*
X167809265Y-68672536D01*
X167849265Y-64512536D02*
X167849265Y-65537536D01*
X167849265Y-67617536D02*
X167849265Y-68642536D01*
X167889265Y-64542536D02*
X167889265Y-65537536D01*
X167889265Y-67617536D02*
X167889265Y-68612536D01*
X167929265Y-64573536D02*
X167929265Y-65537536D01*
X167929265Y-67617536D02*
X167929265Y-68581536D01*
X167969265Y-64606536D02*
X167969265Y-65537536D01*
X167969265Y-67617536D02*
X167969265Y-68548536D01*
X168009265Y-64640536D02*
X168009265Y-65537536D01*
X168009265Y-67617536D02*
X168009265Y-68514536D01*
X168049265Y-64676536D02*
X168049265Y-65537536D01*
X168049265Y-67617536D02*
X168049265Y-68478536D01*
X168089265Y-64713536D02*
X168089265Y-65537536D01*
X168089265Y-67617536D02*
X168089265Y-68441536D01*
X168129265Y-64751536D02*
X168129265Y-65537536D01*
X168129265Y-67617536D02*
X168129265Y-68403536D01*
X168169265Y-64792536D02*
X168169265Y-65537536D01*
X168169265Y-67617536D02*
X168169265Y-68362536D01*
X168209265Y-64834536D02*
X168209265Y-65537536D01*
X168209265Y-67617536D02*
X168209265Y-68320536D01*
X168249265Y-64878536D02*
X168249265Y-65537536D01*
X168249265Y-67617536D02*
X168249265Y-68276536D01*
X168289265Y-64924536D02*
X168289265Y-65537536D01*
X168289265Y-67617536D02*
X168289265Y-68230536D01*
X168329265Y-64972536D02*
X168329265Y-65537536D01*
X168329265Y-67617536D02*
X168329265Y-68182536D01*
X168369265Y-65023536D02*
X168369265Y-65537536D01*
X168369265Y-67617536D02*
X168369265Y-68131536D01*
X168409265Y-65077536D02*
X168409265Y-65537536D01*
X168409265Y-67617536D02*
X168409265Y-68077536D01*
X168449265Y-65134536D02*
X168449265Y-65537536D01*
X168449265Y-67617536D02*
X168449265Y-68020536D01*
X168489265Y-65194536D02*
X168489265Y-65537536D01*
X168489265Y-67617536D02*
X168489265Y-67960536D01*
X168529265Y-65258536D02*
X168529265Y-65537536D01*
X168529265Y-67617536D02*
X168529265Y-67896536D01*
X168569265Y-65326536D02*
X168569265Y-65537536D01*
X168569265Y-67617536D02*
X168569265Y-67828536D01*
X168609265Y-65399536D02*
X168609265Y-67755536D01*
X168649265Y-65479536D02*
X168649265Y-67675536D01*
X168689265Y-65566536D02*
X168689265Y-67588536D01*
X168729265Y-65662536D02*
X168729265Y-67492536D01*
X168769265Y-65772536D02*
X168769265Y-67382536D01*
X168809265Y-65900536D02*
X168809265Y-67254536D01*
X168849265Y-66059536D02*
X168849265Y-67095536D01*
X168889265Y-66293536D02*
X168889265Y-66861536D01*
X168908265Y-66577536D02*
G75*
G02*
X163668265Y-66577536I-2620000J0D01*
G01*
X163668265Y-66577536D02*
G75*
G02*
X168908265Y-66577536I2620000J0D01*
G01*
%TD*%
%LPC*%
D14*
%TO.C,RV1*%
X167285208Y-72202558D03*
X164745208Y-72202558D03*
X162205208Y-72202558D03*
%TD*%
D15*
%TO.C,D1*%
X163481551Y-78100872D03*
D16*
X173641551Y-78100872D03*
%TD*%
D17*
%TO.C,C5*%
X171376915Y-67848426D03*
D18*
X176376915Y-67848426D03*
%TD*%
D19*
%TO.C,J1*%
X176855208Y-80352770D03*
D20*
X176855208Y-77812770D03*
X176855208Y-75272770D03*
%TD*%
D21*
%TO.C,L1*%
X177322931Y-91424700D03*
D22*
X162082931Y-91424700D03*
%TD*%
D23*
%TO.C,IC1*%
X164875831Y-82997863D03*
X164875831Y-84267863D03*
X164875831Y-85537863D03*
X164875831Y-86807863D03*
X170297831Y-86807863D03*
X170297831Y-85537863D03*
X170297831Y-84267863D03*
X170297831Y-82997863D03*
%TD*%
D17*
%TO.C,C4*%
X165038265Y-66577536D03*
D18*
X167538265Y-66577536D03*
%TD*%
%LPD*%
M02*
