%TF.GenerationSoftware,KiCad,Pcbnew,8.0.1-rc1*%
%TF.CreationDate,2024-11-19T18:39:50-08:00*%
%TF.ProjectId,LM2597-Adj,4c4d3235-3937-42d4-9164-6a2e6b696361,rev?*%
%TF.SameCoordinates,Original*%
%TF.FileFunction,Legend,Bot*%
%TF.FilePolarity,Positive*%
%FSLAX46Y46*%
G04 Gerber Fmt 4.6, Leading zero omitted, Abs format (unit mm)*
G04 Created by KiCad (PCBNEW 8.0.1-rc1) date 2024-11-19 18:39:50*
%MOMM*%
%LPD*%
G01*
G04 APERTURE LIST*
G04 Aperture macros list*
%AMRoundRect*
0 Rectangle with rounded corners*
0 $1 Rounding radius*
0 $2 $3 $4 $5 $6 $7 $8 $9 X,Y pos of 4 corners*
0 Add a 4 corners polygon primitive as box body*
4,1,4,$2,$3,$4,$5,$6,$7,$8,$9,$2,$3,0*
0 Add four circle primitives for the rounded corners*
1,1,$1+$1,$2,$3*
1,1,$1+$1,$4,$5*
1,1,$1+$1,$6,$7*
1,1,$1+$1,$8,$9*
0 Add four rect primitives between the rounded corners*
20,1,$1+$1,$2,$3,$4,$5,0*
20,1,$1+$1,$4,$5,$6,$7,0*
20,1,$1+$1,$6,$7,$8,$9,0*
20,1,$1+$1,$8,$9,$2,$3,0*%
G04 Aperture macros list end*
%ADD10C,0.150000*%
%ADD11C,0.120000*%
%ADD12C,1.440000*%
%ADD13RoundRect,0.250000X0.625000X-0.400000X0.625000X0.400000X-0.625000X0.400000X-0.625000X-0.400000X0*%
%ADD14RoundRect,0.250000X-0.625000X0.400000X-0.625000X-0.400000X0.625000X-0.400000X0.625000X0.400000X0*%
%ADD15R,2.200000X2.200000*%
%ADD16O,2.200000X2.200000*%
%ADD17R,1.600000X1.600000*%
%ADD18C,1.600000*%
%ADD19R,1.700000X1.700000*%
%ADD20O,1.700000X1.700000*%
%ADD21C,2.000000*%
%ADD22O,2.000000X2.000000*%
%ADD23RoundRect,0.250000X-0.412500X-0.650000X0.412500X-0.650000X0.412500X0.650000X-0.412500X0.650000X0*%
%ADD24RoundRect,0.250000X0.650000X-0.412500X0.650000X0.412500X-0.650000X0.412500X-0.650000X-0.412500X0*%
G04 APERTURE END LIST*
D10*
X163420008Y-68225794D02*
X162943817Y-67892461D01*
X163420008Y-67654366D02*
X162420008Y-67654366D01*
X162420008Y-67654366D02*
X162420008Y-68035318D01*
X162420008Y-68035318D02*
X162467627Y-68130556D01*
X162467627Y-68130556D02*
X162515246Y-68178175D01*
X162515246Y-68178175D02*
X162610484Y-68225794D01*
X162610484Y-68225794D02*
X162753341Y-68225794D01*
X162753341Y-68225794D02*
X162848579Y-68178175D01*
X162848579Y-68178175D02*
X162896198Y-68130556D01*
X162896198Y-68130556D02*
X162943817Y-68035318D01*
X162943817Y-68035318D02*
X162943817Y-67654366D01*
X162515246Y-68606747D02*
X162467627Y-68654366D01*
X162467627Y-68654366D02*
X162420008Y-68749604D01*
X162420008Y-68749604D02*
X162420008Y-68987699D01*
X162420008Y-68987699D02*
X162467627Y-69082937D01*
X162467627Y-69082937D02*
X162515246Y-69130556D01*
X162515246Y-69130556D02*
X162610484Y-69178175D01*
X162610484Y-69178175D02*
X162705722Y-69178175D01*
X162705722Y-69178175D02*
X162848579Y-69130556D01*
X162848579Y-69130556D02*
X163420008Y-68559128D01*
X163420008Y-68559128D02*
X163420008Y-69178175D01*
X160745421Y-82190068D02*
X160269230Y-81856735D01*
X160745421Y-81618640D02*
X159745421Y-81618640D01*
X159745421Y-81618640D02*
X159745421Y-81999592D01*
X159745421Y-81999592D02*
X159793040Y-82094830D01*
X159793040Y-82094830D02*
X159840659Y-82142449D01*
X159840659Y-82142449D02*
X159935897Y-82190068D01*
X159935897Y-82190068D02*
X160078754Y-82190068D01*
X160078754Y-82190068D02*
X160173992Y-82142449D01*
X160173992Y-82142449D02*
X160221611Y-82094830D01*
X160221611Y-82094830D02*
X160269230Y-81999592D01*
X160269230Y-81999592D02*
X160269230Y-81618640D01*
X160745421Y-83142449D02*
X160745421Y-82571021D01*
X160745421Y-82856735D02*
X159745421Y-82856735D01*
X159745421Y-82856735D02*
X159888278Y-82761497D01*
X159888278Y-82761497D02*
X159983516Y-82666259D01*
X159983516Y-82666259D02*
X160031135Y-82571021D01*
X168408036Y-81175428D02*
X168455655Y-81223048D01*
X168455655Y-81223048D02*
X168598512Y-81270667D01*
X168598512Y-81270667D02*
X168693750Y-81270667D01*
X168693750Y-81270667D02*
X168836607Y-81223048D01*
X168836607Y-81223048D02*
X168931845Y-81127809D01*
X168931845Y-81127809D02*
X168979464Y-81032571D01*
X168979464Y-81032571D02*
X169027083Y-80842095D01*
X169027083Y-80842095D02*
X169027083Y-80699238D01*
X169027083Y-80699238D02*
X168979464Y-80508762D01*
X168979464Y-80508762D02*
X168931845Y-80413524D01*
X168931845Y-80413524D02*
X168836607Y-80318286D01*
X168836607Y-80318286D02*
X168693750Y-80270667D01*
X168693750Y-80270667D02*
X168598512Y-80270667D01*
X168598512Y-80270667D02*
X168455655Y-80318286D01*
X168455655Y-80318286D02*
X168408036Y-80365905D01*
X167455655Y-81270667D02*
X168027083Y-81270667D01*
X167741369Y-81270667D02*
X167741369Y-80270667D01*
X167741369Y-80270667D02*
X167836607Y-80413524D01*
X167836607Y-80413524D02*
X167931845Y-80508762D01*
X167931845Y-80508762D02*
X168027083Y-80556381D01*
X176852495Y-84809725D02*
X176900115Y-84762106D01*
X176900115Y-84762106D02*
X176947734Y-84619249D01*
X176947734Y-84619249D02*
X176947734Y-84524011D01*
X176947734Y-84524011D02*
X176900115Y-84381154D01*
X176900115Y-84381154D02*
X176804876Y-84285916D01*
X176804876Y-84285916D02*
X176709638Y-84238297D01*
X176709638Y-84238297D02*
X176519162Y-84190678D01*
X176519162Y-84190678D02*
X176376305Y-84190678D01*
X176376305Y-84190678D02*
X176185829Y-84238297D01*
X176185829Y-84238297D02*
X176090591Y-84285916D01*
X176090591Y-84285916D02*
X175995353Y-84381154D01*
X175995353Y-84381154D02*
X175947734Y-84524011D01*
X175947734Y-84524011D02*
X175947734Y-84619249D01*
X175947734Y-84619249D02*
X175995353Y-84762106D01*
X175995353Y-84762106D02*
X176042972Y-84809725D01*
X175947734Y-85143059D02*
X175947734Y-85762106D01*
X175947734Y-85762106D02*
X176328686Y-85428773D01*
X176328686Y-85428773D02*
X176328686Y-85571630D01*
X176328686Y-85571630D02*
X176376305Y-85666868D01*
X176376305Y-85666868D02*
X176423924Y-85714487D01*
X176423924Y-85714487D02*
X176519162Y-85762106D01*
X176519162Y-85762106D02*
X176757257Y-85762106D01*
X176757257Y-85762106D02*
X176852495Y-85714487D01*
X176852495Y-85714487D02*
X176900115Y-85666868D01*
X176900115Y-85666868D02*
X176947734Y-85571630D01*
X176947734Y-85571630D02*
X176947734Y-85285916D01*
X176947734Y-85285916D02*
X176900115Y-85190678D01*
X176900115Y-85190678D02*
X176852495Y-85143059D01*
X164277034Y-87412081D02*
X164324654Y-87364462D01*
X164324654Y-87364462D02*
X164372273Y-87221605D01*
X164372273Y-87221605D02*
X164372273Y-87126367D01*
X164372273Y-87126367D02*
X164324654Y-86983510D01*
X164324654Y-86983510D02*
X164229415Y-86888272D01*
X164229415Y-86888272D02*
X164134177Y-86840653D01*
X164134177Y-86840653D02*
X163943701Y-86793034D01*
X163943701Y-86793034D02*
X163800844Y-86793034D01*
X163800844Y-86793034D02*
X163610368Y-86840653D01*
X163610368Y-86840653D02*
X163515130Y-86888272D01*
X163515130Y-86888272D02*
X163419892Y-86983510D01*
X163419892Y-86983510D02*
X163372273Y-87126367D01*
X163372273Y-87126367D02*
X163372273Y-87221605D01*
X163372273Y-87221605D02*
X163419892Y-87364462D01*
X163419892Y-87364462D02*
X163467511Y-87412081D01*
X163467511Y-87793034D02*
X163419892Y-87840653D01*
X163419892Y-87840653D02*
X163372273Y-87935891D01*
X163372273Y-87935891D02*
X163372273Y-88173986D01*
X163372273Y-88173986D02*
X163419892Y-88269224D01*
X163419892Y-88269224D02*
X163467511Y-88316843D01*
X163467511Y-88316843D02*
X163562749Y-88364462D01*
X163562749Y-88364462D02*
X163657987Y-88364462D01*
X163657987Y-88364462D02*
X163800844Y-88316843D01*
X163800844Y-88316843D02*
X164372273Y-87745415D01*
X164372273Y-87745415D02*
X164372273Y-88364462D01*
D11*
%TO.C,R2*%
X162055189Y-67665397D02*
X162055189Y-69119525D01*
X160235189Y-67665397D02*
X160235189Y-69119525D01*
%TO.C,R1*%
X161200602Y-83083799D02*
X161200602Y-81629671D01*
X163020602Y-83083799D02*
X163020602Y-81629671D01*
%TO.C,C1*%
X168952622Y-78055848D02*
X167530118Y-78055848D01*
X168952622Y-79875848D02*
X167530118Y-79875848D01*
%TO.C,C3*%
X173732915Y-84265140D02*
X173732915Y-85687644D01*
X175552915Y-84265140D02*
X175552915Y-85687644D01*
%TO.C,C2*%
X161157454Y-86867496D02*
X161157454Y-88290000D01*
X162977454Y-86867496D02*
X162977454Y-88290000D01*
%TD*%
%LPC*%
D12*
%TO.C,RV1*%
X167285208Y-72202558D03*
X164745208Y-72202558D03*
X162205208Y-72202558D03*
%TD*%
D13*
%TO.C,R2*%
X161145189Y-69942461D03*
X161145189Y-66842461D03*
%TD*%
D14*
%TO.C,R1*%
X162110602Y-80806735D03*
X162110602Y-83906735D03*
%TD*%
D15*
%TO.C,D1*%
X163481551Y-78100872D03*
D16*
X173641551Y-78100872D03*
%TD*%
D17*
%TO.C,C5*%
X171376915Y-67848426D03*
D18*
X176376915Y-67848426D03*
%TD*%
D19*
%TO.C,J1*%
X176855208Y-80352770D03*
D20*
X176855208Y-77812770D03*
X176855208Y-75272770D03*
%TD*%
D21*
%TO.C,L1*%
X177322931Y-91424700D03*
D22*
X162082931Y-91424700D03*
%TD*%
D17*
%TO.C,C4*%
X165038265Y-66577536D03*
D18*
X167538265Y-66577536D03*
%TD*%
D23*
%TO.C,C1*%
X166678870Y-78965848D03*
X169803870Y-78965848D03*
%TD*%
D24*
%TO.C,C3*%
X174642915Y-86538892D03*
X174642915Y-83413892D03*
%TD*%
%TO.C,C2*%
X162067454Y-89141248D03*
X162067454Y-86016248D03*
%TD*%
%LPD*%
M02*
