%TF.GenerationSoftware,KiCad,Pcbnew,7.0.1*%
%TF.CreationDate,2023-05-04T19:00:15-07:00*%
%TF.ProjectId,LM2597-Adj,4c4d3235-3937-42d4-9164-6a2e6b696361,rev?*%
%TF.SameCoordinates,Original*%
%TF.FileFunction,Legend,Bot*%
%TF.FilePolarity,Positive*%
%FSLAX46Y46*%
G04 Gerber Fmt 4.6, Leading zero omitted, Abs format (unit mm)*
G04 Created by KiCad (PCBNEW 7.0.1) date 2023-05-04 19:00:15*
%MOMM*%
%LPD*%
G01*
G04 APERTURE LIST*
%ADD10C,0.150000*%
%ADD11C,0.120000*%
G04 APERTURE END LIST*
D10*
%TO.C,C1*%
X167668728Y-86043434D02*
X167716347Y-86091054D01*
X167716347Y-86091054D02*
X167859204Y-86138673D01*
X167859204Y-86138673D02*
X167954442Y-86138673D01*
X167954442Y-86138673D02*
X168097299Y-86091054D01*
X168097299Y-86091054D02*
X168192537Y-85995815D01*
X168192537Y-85995815D02*
X168240156Y-85900577D01*
X168240156Y-85900577D02*
X168287775Y-85710101D01*
X168287775Y-85710101D02*
X168287775Y-85567244D01*
X168287775Y-85567244D02*
X168240156Y-85376768D01*
X168240156Y-85376768D02*
X168192537Y-85281530D01*
X168192537Y-85281530D02*
X168097299Y-85186292D01*
X168097299Y-85186292D02*
X167954442Y-85138673D01*
X167954442Y-85138673D02*
X167859204Y-85138673D01*
X167859204Y-85138673D02*
X167716347Y-85186292D01*
X167716347Y-85186292D02*
X167668728Y-85233911D01*
X166716347Y-86138673D02*
X167287775Y-86138673D01*
X167002061Y-86138673D02*
X167002061Y-85138673D01*
X167002061Y-85138673D02*
X167097299Y-85281530D01*
X167097299Y-85281530D02*
X167192537Y-85376768D01*
X167192537Y-85376768D02*
X167287775Y-85424387D01*
%TO.C,C3*%
X173690488Y-86226390D02*
X173738108Y-86178771D01*
X173738108Y-86178771D02*
X173785727Y-86035914D01*
X173785727Y-86035914D02*
X173785727Y-85940676D01*
X173785727Y-85940676D02*
X173738108Y-85797819D01*
X173738108Y-85797819D02*
X173642869Y-85702581D01*
X173642869Y-85702581D02*
X173547631Y-85654962D01*
X173547631Y-85654962D02*
X173357155Y-85607343D01*
X173357155Y-85607343D02*
X173214298Y-85607343D01*
X173214298Y-85607343D02*
X173023822Y-85654962D01*
X173023822Y-85654962D02*
X172928584Y-85702581D01*
X172928584Y-85702581D02*
X172833346Y-85797819D01*
X172833346Y-85797819D02*
X172785727Y-85940676D01*
X172785727Y-85940676D02*
X172785727Y-86035914D01*
X172785727Y-86035914D02*
X172833346Y-86178771D01*
X172833346Y-86178771D02*
X172880965Y-86226390D01*
X172785727Y-86559724D02*
X172785727Y-87178771D01*
X172785727Y-87178771D02*
X173166679Y-86845438D01*
X173166679Y-86845438D02*
X173166679Y-86988295D01*
X173166679Y-86988295D02*
X173214298Y-87083533D01*
X173214298Y-87083533D02*
X173261917Y-87131152D01*
X173261917Y-87131152D02*
X173357155Y-87178771D01*
X173357155Y-87178771D02*
X173595250Y-87178771D01*
X173595250Y-87178771D02*
X173690488Y-87131152D01*
X173690488Y-87131152D02*
X173738108Y-87083533D01*
X173738108Y-87083533D02*
X173785727Y-86988295D01*
X173785727Y-86988295D02*
X173785727Y-86702581D01*
X173785727Y-86702581D02*
X173738108Y-86607343D01*
X173738108Y-86607343D02*
X173690488Y-86559724D01*
D11*
%TO.C,C1*%
X167355795Y-83736054D02*
X167648329Y-83736054D01*
X167355795Y-84756054D02*
X167648329Y-84756054D01*
%TO.C,C3*%
X171383108Y-86539324D02*
X171383108Y-86246790D01*
X172403108Y-86539324D02*
X172403108Y-86246790D01*
%TD*%
M02*
