M48
; DRILL file {KiCad 7.0.1} date Thu May  4 19:00:11 2023
; FORMAT={-:-/ absolute / inch / decimal}
; #@! TF.CreationDate,2023-05-04T19:00:11-07:00
; #@! TF.GenerationSoftware,Kicad,Pcbnew,7.0.1
; #@! TF.FileFunction,Plated,1,2,PTH
FMAT,2
INCH
; #@! TA.AperFunction,Plated,PTH,ViaDrill
T1C0.0157
; #@! TA.AperFunction,Plated,PTH,ComponentDrill
T2C0.0315
; #@! TA.AperFunction,Plated,PTH,ComponentDrill
T3C0.0394
; #@! TA.AperFunction,Plated,PTH,ComponentDrill
T4C0.0433
%
G90
G05
T1
X6.4901Y-3.3173
X6.705Y-3.418
X6.7069Y-3.3686
X6.7467Y-2.977
T2
X6.316Y-2.8989
X6.3338Y-2.778
X6.3746Y-3.2062
X6.3746Y-3.3062
X6.416Y-2.8989
X6.4338Y-2.778
X6.4976Y-2.6212
X6.596Y-2.6212
X6.7471Y-2.6712
X6.944Y-2.6712
T3
X6.3812Y-3.5994
X6.9628Y-2.9635
X6.9628Y-3.0635
X6.9628Y-3.1635
X6.9812Y-3.5994
T4
X6.4363Y-3.0748
X6.8363Y-3.0748
T0
M30
