%TF.GenerationSoftware,KiCad,Pcbnew,8.0.1-rc1*%
%TF.CreationDate,2024-11-19T18:26:05-08:00*%
%TF.ProjectId,LM2597-Fixed,4c4d3235-3937-42d4-9669-7865642e6b69,rev?*%
%TF.SameCoordinates,Original*%
%TF.FileFunction,Legend,Bot*%
%TF.FilePolarity,Positive*%
%FSLAX46Y46*%
G04 Gerber Fmt 4.6, Leading zero omitted, Abs format (unit mm)*
G04 Created by KiCad (PCBNEW 8.0.1-rc1) date 2024-11-19 18:26:05*
%MOMM*%
%LPD*%
G01*
G04 APERTURE LIST*
G04 Aperture macros list*
%AMRoundRect*
0 Rectangle with rounded corners*
0 $1 Rounding radius*
0 $2 $3 $4 $5 $6 $7 $8 $9 X,Y pos of 4 corners*
0 Add a 4 corners polygon primitive as box body*
4,1,4,$2,$3,$4,$5,$6,$7,$8,$9,$2,$3,0*
0 Add four circle primitives for the rounded corners*
1,1,$1+$1,$2,$3*
1,1,$1+$1,$4,$5*
1,1,$1+$1,$6,$7*
1,1,$1+$1,$8,$9*
0 Add four rect primitives between the rounded corners*
20,1,$1+$1,$2,$3,$4,$5,0*
20,1,$1+$1,$4,$5,$6,$7,0*
20,1,$1+$1,$6,$7,$8,$9,0*
20,1,$1+$1,$8,$9,$2,$3,0*%
G04 Aperture macros list end*
%ADD10C,0.150000*%
%ADD11C,0.120000*%
%ADD12C,1.600000*%
%ADD13O,1.600000X1.600000*%
%ADD14R,2.200000X2.200000*%
%ADD15O,2.200000X2.200000*%
%ADD16R,1.600000X1.600000*%
%ADD17R,1.700000X1.700000*%
%ADD18O,1.700000X1.700000*%
%ADD19RoundRect,0.250000X0.650000X-0.412500X0.650000X0.412500X-0.650000X0.412500X-0.650000X-0.412500X0*%
G04 APERTURE END LIST*
D10*
X163025974Y-100483590D02*
X163073594Y-100435971D01*
X163073594Y-100435971D02*
X163121213Y-100293114D01*
X163121213Y-100293114D02*
X163121213Y-100197876D01*
X163121213Y-100197876D02*
X163073594Y-100055019D01*
X163073594Y-100055019D02*
X162978355Y-99959781D01*
X162978355Y-99959781D02*
X162883117Y-99912162D01*
X162883117Y-99912162D02*
X162692641Y-99864543D01*
X162692641Y-99864543D02*
X162549784Y-99864543D01*
X162549784Y-99864543D02*
X162359308Y-99912162D01*
X162359308Y-99912162D02*
X162264070Y-99959781D01*
X162264070Y-99959781D02*
X162168832Y-100055019D01*
X162168832Y-100055019D02*
X162121213Y-100197876D01*
X162121213Y-100197876D02*
X162121213Y-100293114D01*
X162121213Y-100293114D02*
X162168832Y-100435971D01*
X162168832Y-100435971D02*
X162216451Y-100483590D01*
X162216451Y-100864543D02*
X162168832Y-100912162D01*
X162168832Y-100912162D02*
X162121213Y-101007400D01*
X162121213Y-101007400D02*
X162121213Y-101245495D01*
X162121213Y-101245495D02*
X162168832Y-101340733D01*
X162168832Y-101340733D02*
X162216451Y-101388352D01*
X162216451Y-101388352D02*
X162311689Y-101435971D01*
X162311689Y-101435971D02*
X162406927Y-101435971D01*
X162406927Y-101435971D02*
X162549784Y-101388352D01*
X162549784Y-101388352D02*
X163121213Y-100816924D01*
X163121213Y-100816924D02*
X163121213Y-101435971D01*
D11*
%TO.C,C2*%
X159906394Y-99939005D02*
X159906394Y-101361509D01*
X161726394Y-99939005D02*
X161726394Y-101361509D01*
%TD*%
%LPC*%
D12*
%TO.C,L1*%
X161334161Y-107019396D03*
D13*
X151174161Y-107019396D03*
%TD*%
D14*
%TO.C,D1*%
X149579492Y-91907963D03*
D15*
X159739492Y-91907963D03*
%TD*%
D16*
%TO.C,C4*%
X159810912Y-86476788D03*
D12*
X159810912Y-82976788D03*
%TD*%
D16*
%TO.C,C3*%
X150853605Y-86476788D03*
D12*
X150853605Y-82976788D03*
%TD*%
D17*
%TO.C,J1*%
X163118369Y-97073471D03*
D18*
X163118369Y-94533471D03*
X163118369Y-91993471D03*
%TD*%
D19*
%TO.C,C2*%
X160816394Y-102212757D03*
X160816394Y-99087757D03*
%TD*%
%LPD*%
M02*
