%TF.GenerationSoftware,KiCad,Pcbnew,7.0.1*%
%TF.CreationDate,2023-05-04T19:01:15-07:00*%
%TF.ProjectId,LM2597-Fixed,4c4d3235-3937-42d4-9669-7865642e6b69,rev?*%
%TF.SameCoordinates,Original*%
%TF.FileFunction,Copper,L1,Top*%
%TF.FilePolarity,Positive*%
%FSLAX46Y46*%
G04 Gerber Fmt 4.6, Leading zero omitted, Abs format (unit mm)*
G04 Created by KiCad (PCBNEW 7.0.1) date 2023-05-04 19:01:15*
%MOMM*%
%LPD*%
G01*
G04 APERTURE LIST*
%TA.AperFunction,SMDPad,CuDef*%
%ADD10R,1.528000X0.650000*%
%TD*%
%TA.AperFunction,ComponentPad*%
%ADD11C,1.600000*%
%TD*%
%TA.AperFunction,ComponentPad*%
%ADD12O,1.600000X1.600000*%
%TD*%
%TA.AperFunction,ComponentPad*%
%ADD13R,2.200000X2.200000*%
%TD*%
%TA.AperFunction,ComponentPad*%
%ADD14O,2.200000X2.200000*%
%TD*%
%TA.AperFunction,ComponentPad*%
%ADD15R,1.600000X1.600000*%
%TD*%
%TA.AperFunction,ComponentPad*%
%ADD16R,1.700000X1.700000*%
%TD*%
%TA.AperFunction,ComponentPad*%
%ADD17O,1.700000X1.700000*%
%TD*%
%TA.AperFunction,ViaPad*%
%ADD18C,0.800000*%
%TD*%
%TA.AperFunction,Conductor*%
%ADD19C,0.635000*%
%TD*%
%TA.AperFunction,Conductor*%
%ADD20C,0.250000*%
%TD*%
G04 APERTURE END LIST*
D10*
%TO.P,IC1,1,ERROR_FLAG*%
%TO.N,Net-(IC1-ERROR_FLAG)*%
X151138992Y-98598564D03*
%TO.P,IC1,2,DELAY*%
%TO.N,Net-(IC1-DELAY)*%
X151138992Y-99868564D03*
%TO.P,IC1,3,BIAS_SUPPLY*%
%TO.N,VCC*%
X151138992Y-101138564D03*
%TO.P,IC1,4,FEEDBACK*%
X151138992Y-102408564D03*
%TO.P,IC1,5,~{SHUTDOWN}/SOFT-START*%
%TO.N,Net-(IC1-~{SHUTDOWN}{slash}SOFT-START)*%
X156560992Y-102408564D03*
%TO.P,IC1,6,GROUND*%
%TO.N,GND*%
X156560992Y-101138564D03*
%TO.P,IC1,7,+VIN*%
%TO.N,+VDC*%
X156560992Y-99868564D03*
%TO.P,IC1,8,OUTPUT*%
%TO.N,Net-(D1-K)*%
X156560992Y-98598564D03*
%TD*%
D11*
%TO.P,L1,1,1*%
%TO.N,Net-(D1-K)*%
X161334161Y-107019396D03*
D12*
%TO.P,L1,2,2*%
%TO.N,VCC*%
X151174161Y-107019396D03*
%TD*%
D13*
%TO.P,D1,1,K*%
%TO.N,Net-(D1-K)*%
X149579492Y-91907963D03*
D14*
%TO.P,D1,2,A*%
%TO.N,GND*%
X159739492Y-91907963D03*
%TD*%
D11*
%TO.P,R1,1*%
%TO.N,+VDC*%
X147766141Y-97044385D03*
D12*
%TO.P,R1,2*%
%TO.N,Net-(IC1-ERROR_FLAG)*%
X147766141Y-102124385D03*
%TD*%
D15*
%TO.P,C4,1*%
%TO.N,VCC*%
X159810912Y-86476788D03*
D11*
%TO.P,C4,2*%
%TO.N,GND*%
X159810912Y-82976788D03*
%TD*%
D15*
%TO.P,C3,1*%
%TO.N,+VDC*%
X150853605Y-86476788D03*
D11*
%TO.P,C3,2*%
%TO.N,GND*%
X150853605Y-82976788D03*
%TD*%
D16*
%TO.P,J1,1,Pin_1*%
%TO.N,+VDC*%
X163118369Y-97073471D03*
D17*
%TO.P,J1,2,Pin_2*%
%TO.N,VCC*%
X163118369Y-94533471D03*
%TO.P,J1,3,Pin_3*%
%TO.N,GND*%
X163118369Y-91993471D03*
%TD*%
D18*
%TO.N,Net-(IC1-DELAY)*%
X151110420Y-99878087D03*
%TO.N,GND*%
X156598987Y-101116350D03*
%TO.N,Net-(IC1-~{SHUTDOWN}{slash}SOFT-START)*%
X156625177Y-102418753D03*
%TO.N,+VDC*%
X157642077Y-97262758D03*
%TO.N,VCC*%
X158318828Y-94334363D03*
X151443568Y-94337281D03*
%TD*%
D19*
%TO.N,+VDC*%
X147766141Y-97044385D02*
X147766141Y-90486314D01*
X156560992Y-99868564D02*
X157414992Y-99868564D01*
X157842492Y-99441064D02*
X157842492Y-97463173D01*
X157414992Y-99868564D02*
X157842492Y-99441064D01*
X150853605Y-87398850D02*
X150853605Y-86476788D01*
X157642077Y-97262758D02*
X162929082Y-97262758D01*
X147766141Y-90486314D02*
X150853605Y-87398850D01*
X157842492Y-97463173D02*
X157642077Y-97262758D01*
%TO.N,VCC*%
X153277788Y-100398768D02*
X153277788Y-97056055D01*
X161750869Y-88416745D02*
X161750869Y-93165971D01*
X159810912Y-86476788D02*
X161750869Y-88416745D01*
X161750869Y-93165971D02*
X163118369Y-94533471D01*
X151138992Y-102408564D02*
X151138992Y-101138564D01*
X153277788Y-97056055D02*
X151434897Y-95213164D01*
X158318828Y-94334363D02*
X162919261Y-94334363D01*
X151138992Y-101138564D02*
X152537992Y-101138564D01*
X152537992Y-101138564D02*
X153277788Y-100398768D01*
X151434897Y-95213164D02*
X151443568Y-94337281D01*
X151174161Y-107019396D02*
X151174161Y-102443733D01*
X151174161Y-102443733D02*
X151138992Y-102408564D01*
%TO.N,Net-(D1-K)*%
X156560992Y-97166293D02*
X151302662Y-91907963D01*
X156988257Y-107019396D02*
X154408170Y-104439309D01*
X154408170Y-99210641D02*
X155020247Y-98598564D01*
X156560992Y-98598564D02*
X156560992Y-97166293D01*
X151302662Y-91907963D02*
X149579492Y-91907963D01*
X154408170Y-104439309D02*
X154408170Y-99210641D01*
X161334161Y-107019396D02*
X156988257Y-107019396D01*
X155020247Y-98598564D02*
X156560992Y-98598564D01*
D20*
%TO.N,Net-(IC1-ERROR_FLAG)*%
X147766141Y-100057092D02*
X149224669Y-98598564D01*
X147766141Y-102124385D02*
X147766141Y-100057092D01*
X151138992Y-98598564D02*
X149224669Y-98598564D01*
%TD*%
M02*
