%TF.GenerationSoftware,KiCad,Pcbnew,7.0.1*%
%TF.CreationDate,2023-05-04T19:01:15-07:00*%
%TF.ProjectId,LM2597-Fixed,4c4d3235-3937-42d4-9669-7865642e6b69,rev?*%
%TF.SameCoordinates,Original*%
%TF.FileFunction,Copper,L2,Bot*%
%TF.FilePolarity,Positive*%
%FSLAX46Y46*%
G04 Gerber Fmt 4.6, Leading zero omitted, Abs format (unit mm)*
G04 Created by KiCad (PCBNEW 7.0.1) date 2023-05-04 19:01:15*
%MOMM*%
%LPD*%
G01*
G04 APERTURE LIST*
G04 Aperture macros list*
%AMRoundRect*
0 Rectangle with rounded corners*
0 $1 Rounding radius*
0 $2 $3 $4 $5 $6 $7 $8 $9 X,Y pos of 4 corners*
0 Add a 4 corners polygon primitive as box body*
4,1,4,$2,$3,$4,$5,$6,$7,$8,$9,$2,$3,0*
0 Add four circle primitives for the rounded corners*
1,1,$1+$1,$2,$3*
1,1,$1+$1,$4,$5*
1,1,$1+$1,$6,$7*
1,1,$1+$1,$8,$9*
0 Add four rect primitives between the rounded corners*
20,1,$1+$1,$2,$3,$4,$5,0*
20,1,$1+$1,$4,$5,$6,$7,0*
20,1,$1+$1,$6,$7,$8,$9,0*
20,1,$1+$1,$8,$9,$2,$3,0*%
G04 Aperture macros list end*
%TA.AperFunction,ComponentPad*%
%ADD10C,1.600000*%
%TD*%
%TA.AperFunction,ComponentPad*%
%ADD11O,1.600000X1.600000*%
%TD*%
%TA.AperFunction,ComponentPad*%
%ADD12R,2.200000X2.200000*%
%TD*%
%TA.AperFunction,ComponentPad*%
%ADD13O,2.200000X2.200000*%
%TD*%
%TA.AperFunction,ComponentPad*%
%ADD14R,1.600000X1.600000*%
%TD*%
%TA.AperFunction,ComponentPad*%
%ADD15R,1.700000X1.700000*%
%TD*%
%TA.AperFunction,ComponentPad*%
%ADD16O,1.700000X1.700000*%
%TD*%
%TA.AperFunction,SMDPad,CuDef*%
%ADD17RoundRect,0.237500X0.237500X-0.300000X0.237500X0.300000X-0.237500X0.300000X-0.237500X-0.300000X0*%
%TD*%
%TA.AperFunction,SMDPad,CuDef*%
%ADD18RoundRect,0.237500X0.300000X0.237500X-0.300000X0.237500X-0.300000X-0.237500X0.300000X-0.237500X0*%
%TD*%
%TA.AperFunction,ViaPad*%
%ADD19C,0.800000*%
%TD*%
%TA.AperFunction,Conductor*%
%ADD20C,0.635000*%
%TD*%
%TA.AperFunction,Conductor*%
%ADD21C,0.762000*%
%TD*%
%TA.AperFunction,Conductor*%
%ADD22C,0.250000*%
%TD*%
G04 APERTURE END LIST*
D10*
%TO.P,L1,1,1*%
%TO.N,Net-(D1-K)*%
X161334161Y-107019396D03*
D11*
%TO.P,L1,2,2*%
%TO.N,VCC*%
X151174161Y-107019396D03*
%TD*%
D12*
%TO.P,D1,1,K*%
%TO.N,Net-(D1-K)*%
X149579492Y-91907963D03*
D13*
%TO.P,D1,2,A*%
%TO.N,GND*%
X159739492Y-91907963D03*
%TD*%
D10*
%TO.P,R1,1*%
%TO.N,+VDC*%
X147766141Y-97044385D03*
D11*
%TO.P,R1,2*%
%TO.N,Net-(IC1-ERROR_FLAG)*%
X147766141Y-102124385D03*
%TD*%
D14*
%TO.P,C4,1*%
%TO.N,VCC*%
X159810912Y-86476788D03*
D10*
%TO.P,C4,2*%
%TO.N,GND*%
X159810912Y-82976788D03*
%TD*%
D14*
%TO.P,C3,1*%
%TO.N,+VDC*%
X150853605Y-86476788D03*
D10*
%TO.P,C3,2*%
%TO.N,GND*%
X150853605Y-82976788D03*
%TD*%
D15*
%TO.P,J1,1,Pin_1*%
%TO.N,+VDC*%
X163118369Y-97073471D03*
D16*
%TO.P,J1,2,Pin_2*%
%TO.N,VCC*%
X163118369Y-94533471D03*
%TO.P,J1,3,Pin_3*%
%TO.N,GND*%
X163118369Y-91993471D03*
%TD*%
D17*
%TO.P,C2,1*%
%TO.N,Net-(IC1-~{SHUTDOWN}{slash}SOFT-START)*%
X158921252Y-102417681D03*
%TO.P,C2,2*%
%TO.N,GND*%
X158921252Y-100692681D03*
%TD*%
D18*
%TO.P,C1,1*%
%TO.N,Net-(IC1-DELAY)*%
X149278200Y-99878808D03*
%TO.P,C1,2*%
%TO.N,GND*%
X147553200Y-99878808D03*
%TD*%
D19*
%TO.N,Net-(IC1-DELAY)*%
X151110420Y-99878087D03*
%TO.N,GND*%
X156598987Y-101116350D03*
%TO.N,Net-(IC1-~{SHUTDOWN}{slash}SOFT-START)*%
X156625177Y-102418753D03*
%TO.N,+VDC*%
X157642077Y-97262758D03*
%TO.N,VCC*%
X158318828Y-94334363D03*
X151443568Y-94337281D03*
%TD*%
D20*
%TO.N,Net-(IC1-DELAY)*%
X151109699Y-99878808D02*
X151110420Y-99878087D01*
X149278200Y-99878808D02*
X151109699Y-99878808D01*
D21*
%TO.N,GND*%
X159739492Y-91907963D02*
X161322554Y-90324901D01*
X161322554Y-90324901D02*
X161322554Y-84488430D01*
X163118369Y-91993471D02*
X159825000Y-91993471D01*
X163118369Y-91993471D02*
X158921252Y-96190588D01*
X158921252Y-96190588D02*
X158921252Y-100692681D01*
X161322554Y-84488430D02*
X159810912Y-82976788D01*
D22*
X156598987Y-101116350D02*
X148790742Y-101116350D01*
X148790742Y-101116350D02*
X147553200Y-99878808D01*
D21*
X159739492Y-91907963D02*
X150853605Y-83022076D01*
D20*
%TO.N,Net-(IC1-~{SHUTDOWN}{slash}SOFT-START)*%
X158921252Y-102417681D02*
X156626249Y-102417681D01*
X156626249Y-102417681D02*
X156625177Y-102418753D01*
%TO.N,+VDC*%
X149062012Y-95748514D02*
X149287168Y-95748514D01*
X149062012Y-95748514D02*
X147766141Y-97044385D01*
X149287168Y-95748514D02*
X149608602Y-95427080D01*
X157642077Y-97262758D02*
X157642077Y-95638982D01*
X157430175Y-95427080D02*
X149608602Y-95427080D01*
X157642077Y-95638982D02*
X157430175Y-95427080D01*
%TO.N,VCC*%
X151443568Y-94337281D02*
X158293431Y-94337281D01*
X158293431Y-94337281D02*
X158318828Y-94334363D01*
X158299267Y-94337281D02*
X158296349Y-94337281D01*
X158318828Y-94334363D02*
X158299267Y-94337281D01*
%TD*%
%TA.AperFunction,Conductor*%
%TO.N,GND*%
G36*
X153423277Y-96247343D02*
G01*
X156700149Y-96249257D01*
X156762119Y-96265894D01*
X156807476Y-96311278D01*
X156824077Y-96373257D01*
X156824077Y-96846584D01*
X156818008Y-96884902D01*
X156756403Y-97074500D01*
X156736617Y-97262757D01*
X156736617Y-97262758D01*
X156746510Y-97356886D01*
X156756403Y-97451015D01*
X156814897Y-97631042D01*
X156909543Y-97794974D01*
X157036206Y-97935647D01*
X157189346Y-98046909D01*
X157362274Y-98123902D01*
X157547429Y-98163258D01*
X157547431Y-98163258D01*
X157736723Y-98163258D01*
X157736725Y-98163258D01*
X157860161Y-98137020D01*
X157921880Y-98123902D01*
X158094807Y-98046909D01*
X158247948Y-97935646D01*
X158374610Y-97794974D01*
X158469256Y-97631042D01*
X158527751Y-97451014D01*
X158547537Y-97262758D01*
X158527751Y-97074502D01*
X158469256Y-96894474D01*
X158466146Y-96884902D01*
X158460077Y-96846584D01*
X158460077Y-96374356D01*
X158476702Y-96312335D01*
X158522119Y-96266945D01*
X158584148Y-96250356D01*
X159143634Y-96250682D01*
X159205540Y-96267283D01*
X159250888Y-96312580D01*
X159267560Y-96374469D01*
X159272982Y-99530968D01*
X159256440Y-99593058D01*
X159211043Y-99638533D01*
X159179415Y-99647017D01*
X159171252Y-99655181D01*
X159171252Y-100818681D01*
X159154639Y-100880681D01*
X159109252Y-100926068D01*
X159047252Y-100942681D01*
X157946253Y-100942681D01*
X157946253Y-101041828D01*
X157956570Y-101142831D01*
X158010799Y-101306485D01*
X158075009Y-101410584D01*
X158093441Y-101472976D01*
X158077749Y-101536113D01*
X158032250Y-101582614D01*
X157969471Y-101599681D01*
X157025831Y-101599681D01*
X156975395Y-101588960D01*
X156904979Y-101557608D01*
X156719825Y-101518253D01*
X156719823Y-101518253D01*
X156530531Y-101518253D01*
X156530529Y-101518253D01*
X156345374Y-101557608D01*
X156172446Y-101634601D01*
X156019306Y-101745863D01*
X155892643Y-101886536D01*
X155797997Y-102050468D01*
X155739503Y-102230495D01*
X155719717Y-102418753D01*
X155739503Y-102607010D01*
X155797997Y-102787037D01*
X155892643Y-102950969D01*
X156019306Y-103091642D01*
X156172446Y-103202904D01*
X156345374Y-103279897D01*
X156530529Y-103319253D01*
X156530531Y-103319253D01*
X156719823Y-103319253D01*
X156719825Y-103319253D01*
X156843261Y-103293015D01*
X156904980Y-103279897D01*
X156952730Y-103258636D01*
X156980211Y-103246402D01*
X157030647Y-103235681D01*
X158106700Y-103235681D01*
X158154153Y-103245120D01*
X158194382Y-103272001D01*
X158222899Y-103300519D01*
X158222901Y-103300520D01*
X158222902Y-103300521D01*
X158254074Y-103319748D01*
X158369736Y-103391089D01*
X158533498Y-103445355D01*
X158542866Y-103446312D01*
X158634575Y-103455681D01*
X159207928Y-103455680D01*
X159309005Y-103445355D01*
X159472768Y-103391089D01*
X159558503Y-103338206D01*
X159624276Y-103319748D01*
X163056734Y-103338608D01*
X163118302Y-103355363D01*
X163163388Y-103400515D01*
X163180052Y-103462108D01*
X163203129Y-109205322D01*
X163186660Y-109267573D01*
X163141193Y-109313171D01*
X163078990Y-109329820D01*
X149917004Y-109314923D01*
X149855184Y-109298333D01*
X149809874Y-109253125D01*
X149793145Y-109191344D01*
X149788029Y-107683815D01*
X149805566Y-107619822D01*
X149853590Y-107574032D01*
X149918349Y-107559559D01*
X149981297Y-107580550D01*
X150024410Y-107630992D01*
X150043594Y-107672132D01*
X150174114Y-107858536D01*
X150335020Y-108019442D01*
X150521425Y-108149963D01*
X150521426Y-108149963D01*
X150521427Y-108149964D01*
X150727665Y-108246135D01*
X150947469Y-108305031D01*
X151174161Y-108324864D01*
X151400853Y-108305031D01*
X151620657Y-108246135D01*
X151826895Y-108149964D01*
X152013300Y-108019443D01*
X152174208Y-107858535D01*
X152304729Y-107672130D01*
X152400900Y-107465892D01*
X152459796Y-107246088D01*
X152479629Y-107019396D01*
X152479629Y-107019395D01*
X160028692Y-107019395D01*
X160048525Y-107246085D01*
X160107422Y-107465893D01*
X160203593Y-107672131D01*
X160334114Y-107858536D01*
X160495020Y-108019442D01*
X160681425Y-108149963D01*
X160681426Y-108149963D01*
X160681427Y-108149964D01*
X160887665Y-108246135D01*
X161107469Y-108305031D01*
X161334161Y-108324864D01*
X161560853Y-108305031D01*
X161780657Y-108246135D01*
X161986895Y-108149964D01*
X162173300Y-108019443D01*
X162334208Y-107858535D01*
X162464729Y-107672130D01*
X162560900Y-107465892D01*
X162619796Y-107246088D01*
X162639629Y-107019396D01*
X162619796Y-106792704D01*
X162560900Y-106572900D01*
X162464729Y-106366662D01*
X162463850Y-106365407D01*
X162334207Y-106180255D01*
X162173301Y-106019349D01*
X161986896Y-105888828D01*
X161780658Y-105792657D01*
X161560850Y-105733760D01*
X161334161Y-105713927D01*
X161107471Y-105733760D01*
X160887663Y-105792657D01*
X160681425Y-105888828D01*
X160495020Y-106019349D01*
X160334114Y-106180255D01*
X160203593Y-106366660D01*
X160107422Y-106572898D01*
X160048525Y-106792706D01*
X160028692Y-107019395D01*
X152479629Y-107019395D01*
X152459796Y-106792704D01*
X152400900Y-106572900D01*
X152304729Y-106366662D01*
X152303850Y-106365407D01*
X152174207Y-106180255D01*
X152013301Y-106019349D01*
X151826896Y-105888828D01*
X151620658Y-105792657D01*
X151400850Y-105733760D01*
X151174161Y-105713927D01*
X150947471Y-105733760D01*
X150727663Y-105792657D01*
X150521425Y-105888828D01*
X150335020Y-106019349D01*
X150174114Y-106180255D01*
X150043591Y-106366663D01*
X150019936Y-106417392D01*
X149976964Y-106467740D01*
X149914212Y-106488807D01*
X149849563Y-106474590D01*
X149801440Y-106429139D01*
X149783556Y-106365407D01*
X149781939Y-105888828D01*
X149765085Y-100921798D01*
X149775593Y-100871425D01*
X149805650Y-100829651D01*
X149850077Y-100803679D01*
X149892216Y-100789716D01*
X150012914Y-100715268D01*
X150078010Y-100696808D01*
X150708978Y-100696808D01*
X150759413Y-100707528D01*
X150811040Y-100730514D01*
X150830619Y-100739232D01*
X151015772Y-100778587D01*
X151015774Y-100778587D01*
X151205066Y-100778587D01*
X151205068Y-100778587D01*
X151328504Y-100752349D01*
X151390223Y-100739231D01*
X151563150Y-100662238D01*
X151716291Y-100550975D01*
X151813800Y-100442681D01*
X157946252Y-100442681D01*
X158671252Y-100442681D01*
X158671252Y-99655182D01*
X158634605Y-99655182D01*
X158533601Y-99665499D01*
X158369950Y-99719727D01*
X158223211Y-99810237D01*
X158101308Y-99932140D01*
X158010798Y-100078879D01*
X157956570Y-100242529D01*
X157946252Y-100343534D01*
X157946252Y-100442681D01*
X151813800Y-100442681D01*
X151842953Y-100410303D01*
X151937599Y-100246371D01*
X151996094Y-100066343D01*
X152015880Y-99878087D01*
X151996094Y-99689831D01*
X151937599Y-99509803D01*
X151937599Y-99509802D01*
X151842953Y-99345870D01*
X151716290Y-99205197D01*
X151563150Y-99093935D01*
X151390222Y-99016942D01*
X151205068Y-98977587D01*
X151205066Y-98977587D01*
X151015774Y-98977587D01*
X151015772Y-98977587D01*
X150830617Y-99016942D01*
X150756175Y-99050087D01*
X150705739Y-99060808D01*
X150078010Y-99060808D01*
X150012914Y-99042347D01*
X149892216Y-98967900D01*
X149842993Y-98951589D01*
X149798774Y-98925805D01*
X149768736Y-98884356D01*
X149758002Y-98834310D01*
X149750056Y-96492685D01*
X149765430Y-96432465D01*
X149792422Y-96403872D01*
X149790529Y-96401979D01*
X149800407Y-96392100D01*
X149800410Y-96392099D01*
X149910850Y-96281658D01*
X149951106Y-96254769D01*
X149998595Y-96245344D01*
X153423277Y-96247343D01*
G37*
%TD.AperFunction*%
%TD*%
M02*
