%TF.GenerationSoftware,KiCad,Pcbnew,8.0.1-rc1*%
%TF.CreationDate,2024-11-19T18:26:05-08:00*%
%TF.ProjectId,LM2597-Fixed,4c4d3235-3937-42d4-9669-7865642e6b69,rev?*%
%TF.SameCoordinates,Original*%
%TF.FileFunction,Legend,Top*%
%TF.FilePolarity,Positive*%
%FSLAX46Y46*%
G04 Gerber Fmt 4.6, Leading zero omitted, Abs format (unit mm)*
G04 Created by KiCad (PCBNEW 8.0.1-rc1) date 2024-11-19 18:26:05*
%MOMM*%
%LPD*%
G01*
G04 APERTURE LIST*
G04 Aperture macros list*
%AMRoundRect*
0 Rectangle with rounded corners*
0 $1 Rounding radius*
0 $2 $3 $4 $5 $6 $7 $8 $9 X,Y pos of 4 corners*
0 Add a 4 corners polygon primitive as box body*
4,1,4,$2,$3,$4,$5,$6,$7,$8,$9,$2,$3,0*
0 Add four circle primitives for the rounded corners*
1,1,$1+$1,$2,$3*
1,1,$1+$1,$4,$5*
1,1,$1+$1,$6,$7*
1,1,$1+$1,$8,$9*
0 Add four rect primitives between the rounded corners*
20,1,$1+$1,$2,$3,$4,$5,0*
20,1,$1+$1,$4,$5,$6,$7,0*
20,1,$1+$1,$6,$7,$8,$9,0*
20,1,$1+$1,$8,$9,$2,$3,0*%
G04 Aperture macros list end*
%ADD10C,0.150000*%
%ADD11C,0.254000*%
%ADD12C,0.120000*%
%ADD13C,0.200000*%
%ADD14RoundRect,0.250000X-0.625000X0.400000X-0.625000X-0.400000X0.625000X-0.400000X0.625000X0.400000X0*%
%ADD15R,1.528000X0.650000*%
%ADD16C,1.600000*%
%ADD17O,1.600000X1.600000*%
%ADD18R,2.200000X2.200000*%
%ADD19O,2.200000X2.200000*%
%ADD20R,1.600000X1.600000*%
%ADD21R,1.700000X1.700000*%
%ADD22O,1.700000X1.700000*%
%ADD23RoundRect,0.250000X-0.650000X0.412500X-0.650000X-0.412500X0.650000X-0.412500X0.650000X0.412500X0*%
G04 APERTURE END LIST*
D10*
X146540151Y-111758947D02*
X146063961Y-111758947D01*
X146063961Y-111758947D02*
X146063961Y-110758947D01*
X146873485Y-111758947D02*
X146873485Y-110758947D01*
X146873485Y-110758947D02*
X147206818Y-111473232D01*
X147206818Y-111473232D02*
X147540151Y-110758947D01*
X147540151Y-110758947D02*
X147540151Y-111758947D01*
X147968723Y-110854185D02*
X148016342Y-110806566D01*
X148016342Y-110806566D02*
X148111580Y-110758947D01*
X148111580Y-110758947D02*
X148349675Y-110758947D01*
X148349675Y-110758947D02*
X148444913Y-110806566D01*
X148444913Y-110806566D02*
X148492532Y-110854185D01*
X148492532Y-110854185D02*
X148540151Y-110949423D01*
X148540151Y-110949423D02*
X148540151Y-111044661D01*
X148540151Y-111044661D02*
X148492532Y-111187518D01*
X148492532Y-111187518D02*
X147921104Y-111758947D01*
X147921104Y-111758947D02*
X148540151Y-111758947D01*
X149444913Y-110758947D02*
X148968723Y-110758947D01*
X148968723Y-110758947D02*
X148921104Y-111235137D01*
X148921104Y-111235137D02*
X148968723Y-111187518D01*
X148968723Y-111187518D02*
X149063961Y-111139899D01*
X149063961Y-111139899D02*
X149302056Y-111139899D01*
X149302056Y-111139899D02*
X149397294Y-111187518D01*
X149397294Y-111187518D02*
X149444913Y-111235137D01*
X149444913Y-111235137D02*
X149492532Y-111330375D01*
X149492532Y-111330375D02*
X149492532Y-111568470D01*
X149492532Y-111568470D02*
X149444913Y-111663708D01*
X149444913Y-111663708D02*
X149397294Y-111711328D01*
X149397294Y-111711328D02*
X149302056Y-111758947D01*
X149302056Y-111758947D02*
X149063961Y-111758947D01*
X149063961Y-111758947D02*
X148968723Y-111711328D01*
X148968723Y-111711328D02*
X148921104Y-111663708D01*
X149968723Y-111758947D02*
X150159199Y-111758947D01*
X150159199Y-111758947D02*
X150254437Y-111711328D01*
X150254437Y-111711328D02*
X150302056Y-111663708D01*
X150302056Y-111663708D02*
X150397294Y-111520851D01*
X150397294Y-111520851D02*
X150444913Y-111330375D01*
X150444913Y-111330375D02*
X150444913Y-110949423D01*
X150444913Y-110949423D02*
X150397294Y-110854185D01*
X150397294Y-110854185D02*
X150349675Y-110806566D01*
X150349675Y-110806566D02*
X150254437Y-110758947D01*
X150254437Y-110758947D02*
X150063961Y-110758947D01*
X150063961Y-110758947D02*
X149968723Y-110806566D01*
X149968723Y-110806566D02*
X149921104Y-110854185D01*
X149921104Y-110854185D02*
X149873485Y-110949423D01*
X149873485Y-110949423D02*
X149873485Y-111187518D01*
X149873485Y-111187518D02*
X149921104Y-111282756D01*
X149921104Y-111282756D02*
X149968723Y-111330375D01*
X149968723Y-111330375D02*
X150063961Y-111377994D01*
X150063961Y-111377994D02*
X150254437Y-111377994D01*
X150254437Y-111377994D02*
X150349675Y-111330375D01*
X150349675Y-111330375D02*
X150397294Y-111282756D01*
X150397294Y-111282756D02*
X150444913Y-111187518D01*
X151063961Y-110758947D02*
X151159199Y-110758947D01*
X151159199Y-110758947D02*
X151254437Y-110806566D01*
X151254437Y-110806566D02*
X151302056Y-110854185D01*
X151302056Y-110854185D02*
X151349675Y-110949423D01*
X151349675Y-110949423D02*
X151397294Y-111139899D01*
X151397294Y-111139899D02*
X151397294Y-111377994D01*
X151397294Y-111377994D02*
X151349675Y-111568470D01*
X151349675Y-111568470D02*
X151302056Y-111663708D01*
X151302056Y-111663708D02*
X151254437Y-111711328D01*
X151254437Y-111711328D02*
X151159199Y-111758947D01*
X151159199Y-111758947D02*
X151063961Y-111758947D01*
X151063961Y-111758947D02*
X150968723Y-111711328D01*
X150968723Y-111711328D02*
X150921104Y-111663708D01*
X150921104Y-111663708D02*
X150873485Y-111568470D01*
X150873485Y-111568470D02*
X150825866Y-111377994D01*
X150825866Y-111377994D02*
X150825866Y-111139899D01*
X150825866Y-111139899D02*
X150873485Y-110949423D01*
X150873485Y-110949423D02*
X150921104Y-110854185D01*
X150921104Y-110854185D02*
X150968723Y-110806566D01*
X150968723Y-110806566D02*
X151063961Y-110758947D01*
X151825866Y-111377994D02*
X152587771Y-111377994D01*
X153397294Y-111235137D02*
X153063961Y-111235137D01*
X153063961Y-111758947D02*
X153063961Y-110758947D01*
X153063961Y-110758947D02*
X153540151Y-110758947D01*
X153921104Y-111758947D02*
X153921104Y-111092280D01*
X153921104Y-110758947D02*
X153873485Y-110806566D01*
X153873485Y-110806566D02*
X153921104Y-110854185D01*
X153921104Y-110854185D02*
X153968723Y-110806566D01*
X153968723Y-110806566D02*
X153921104Y-110758947D01*
X153921104Y-110758947D02*
X153921104Y-110854185D01*
X154302056Y-111758947D02*
X154825865Y-111092280D01*
X154302056Y-111092280D02*
X154825865Y-111758947D01*
X155587770Y-111711328D02*
X155492532Y-111758947D01*
X155492532Y-111758947D02*
X155302056Y-111758947D01*
X155302056Y-111758947D02*
X155206818Y-111711328D01*
X155206818Y-111711328D02*
X155159199Y-111616089D01*
X155159199Y-111616089D02*
X155159199Y-111235137D01*
X155159199Y-111235137D02*
X155206818Y-111139899D01*
X155206818Y-111139899D02*
X155302056Y-111092280D01*
X155302056Y-111092280D02*
X155492532Y-111092280D01*
X155492532Y-111092280D02*
X155587770Y-111139899D01*
X155587770Y-111139899D02*
X155635389Y-111235137D01*
X155635389Y-111235137D02*
X155635389Y-111330375D01*
X155635389Y-111330375D02*
X155159199Y-111425613D01*
X156492532Y-111758947D02*
X156492532Y-110758947D01*
X156492532Y-111711328D02*
X156397294Y-111758947D01*
X156397294Y-111758947D02*
X156206818Y-111758947D01*
X156206818Y-111758947D02*
X156111580Y-111711328D01*
X156111580Y-111711328D02*
X156063961Y-111663708D01*
X156063961Y-111663708D02*
X156016342Y-111568470D01*
X156016342Y-111568470D02*
X156016342Y-111282756D01*
X156016342Y-111282756D02*
X156063961Y-111187518D01*
X156063961Y-111187518D02*
X156111580Y-111139899D01*
X156111580Y-111139899D02*
X156206818Y-111092280D01*
X156206818Y-111092280D02*
X156397294Y-111092280D01*
X156397294Y-111092280D02*
X156492532Y-111139899D01*
X150040960Y-97211051D02*
X149564769Y-97544384D01*
X150040960Y-97782479D02*
X149040960Y-97782479D01*
X149040960Y-97782479D02*
X149040960Y-97401527D01*
X149040960Y-97401527D02*
X149088579Y-97306289D01*
X149088579Y-97306289D02*
X149136198Y-97258670D01*
X149136198Y-97258670D02*
X149231436Y-97211051D01*
X149231436Y-97211051D02*
X149374293Y-97211051D01*
X149374293Y-97211051D02*
X149469531Y-97258670D01*
X149469531Y-97258670D02*
X149517150Y-97306289D01*
X149517150Y-97306289D02*
X149564769Y-97401527D01*
X149564769Y-97401527D02*
X149564769Y-97782479D01*
X150040960Y-96258670D02*
X150040960Y-96830098D01*
X150040960Y-96544384D02*
X149040960Y-96544384D01*
X149040960Y-96544384D02*
X149183817Y-96639622D01*
X149183817Y-96639622D02*
X149279055Y-96734860D01*
X149279055Y-96734860D02*
X149326674Y-96830098D01*
D11*
X152610229Y-101077882D02*
X152610229Y-99807882D01*
X153940706Y-100956929D02*
X153880230Y-101017406D01*
X153880230Y-101017406D02*
X153698801Y-101077882D01*
X153698801Y-101077882D02*
X153577849Y-101077882D01*
X153577849Y-101077882D02*
X153396420Y-101017406D01*
X153396420Y-101017406D02*
X153275468Y-100896453D01*
X153275468Y-100896453D02*
X153214991Y-100775501D01*
X153214991Y-100775501D02*
X153154515Y-100533596D01*
X153154515Y-100533596D02*
X153154515Y-100352167D01*
X153154515Y-100352167D02*
X153214991Y-100110263D01*
X153214991Y-100110263D02*
X153275468Y-99989310D01*
X153275468Y-99989310D02*
X153396420Y-99868358D01*
X153396420Y-99868358D02*
X153577849Y-99807882D01*
X153577849Y-99807882D02*
X153698801Y-99807882D01*
X153698801Y-99807882D02*
X153880230Y-99868358D01*
X153880230Y-99868358D02*
X153940706Y-99928834D01*
X155150230Y-101077882D02*
X154424515Y-101077882D01*
X154787372Y-101077882D02*
X154787372Y-99807882D01*
X154787372Y-99807882D02*
X154666420Y-99989310D01*
X154666420Y-99989310D02*
X154545468Y-100110263D01*
X154545468Y-100110263D02*
X154424515Y-100170739D01*
D10*
X156087494Y-109944215D02*
X155611304Y-109944215D01*
X155611304Y-109944215D02*
X155611304Y-108944215D01*
X156944637Y-109944215D02*
X156373209Y-109944215D01*
X156658923Y-109944215D02*
X156658923Y-108944215D01*
X156658923Y-108944215D02*
X156563685Y-109087072D01*
X156563685Y-109087072D02*
X156468447Y-109182310D01*
X156468447Y-109182310D02*
X156373209Y-109229929D01*
X153921397Y-89892782D02*
X153921397Y-88892782D01*
X153921397Y-88892782D02*
X154159492Y-88892782D01*
X154159492Y-88892782D02*
X154302349Y-88940401D01*
X154302349Y-88940401D02*
X154397587Y-89035639D01*
X154397587Y-89035639D02*
X154445206Y-89130877D01*
X154445206Y-89130877D02*
X154492825Y-89321353D01*
X154492825Y-89321353D02*
X154492825Y-89464210D01*
X154492825Y-89464210D02*
X154445206Y-89654686D01*
X154445206Y-89654686D02*
X154397587Y-89749924D01*
X154397587Y-89749924D02*
X154302349Y-89845163D01*
X154302349Y-89845163D02*
X154159492Y-89892782D01*
X154159492Y-89892782D02*
X153921397Y-89892782D01*
X155445206Y-89892782D02*
X154873778Y-89892782D01*
X155159492Y-89892782D02*
X155159492Y-88892782D01*
X155159492Y-88892782D02*
X155064254Y-89035639D01*
X155064254Y-89035639D02*
X154969016Y-89130877D01*
X154969016Y-89130877D02*
X154873778Y-89178496D01*
X149317587Y-90262782D02*
X149317587Y-89262782D01*
X149889015Y-90262782D02*
X149460444Y-89691353D01*
X149889015Y-89262782D02*
X149317587Y-89834210D01*
X156265063Y-88161467D02*
X156312683Y-88209086D01*
X156312683Y-88209086D02*
X156360302Y-88351943D01*
X156360302Y-88351943D02*
X156360302Y-88447181D01*
X156360302Y-88447181D02*
X156312683Y-88590038D01*
X156312683Y-88590038D02*
X156217444Y-88685276D01*
X156217444Y-88685276D02*
X156122206Y-88732895D01*
X156122206Y-88732895D02*
X155931730Y-88780514D01*
X155931730Y-88780514D02*
X155788873Y-88780514D01*
X155788873Y-88780514D02*
X155598397Y-88732895D01*
X155598397Y-88732895D02*
X155503159Y-88685276D01*
X155503159Y-88685276D02*
X155407921Y-88590038D01*
X155407921Y-88590038D02*
X155360302Y-88447181D01*
X155360302Y-88447181D02*
X155360302Y-88351943D01*
X155360302Y-88351943D02*
X155407921Y-88209086D01*
X155407921Y-88209086D02*
X155455540Y-88161467D01*
X155693635Y-87304324D02*
X156360302Y-87304324D01*
X155312683Y-87542419D02*
X156026968Y-87780514D01*
X156026968Y-87780514D02*
X156026968Y-87161467D01*
X146900606Y-88140038D02*
X146948226Y-88187657D01*
X146948226Y-88187657D02*
X146995845Y-88330514D01*
X146995845Y-88330514D02*
X146995845Y-88425752D01*
X146995845Y-88425752D02*
X146948226Y-88568609D01*
X146948226Y-88568609D02*
X146852987Y-88663847D01*
X146852987Y-88663847D02*
X146757749Y-88711466D01*
X146757749Y-88711466D02*
X146567273Y-88759085D01*
X146567273Y-88759085D02*
X146424416Y-88759085D01*
X146424416Y-88759085D02*
X146233940Y-88711466D01*
X146233940Y-88711466D02*
X146138702Y-88663847D01*
X146138702Y-88663847D02*
X146043464Y-88568609D01*
X146043464Y-88568609D02*
X145995845Y-88425752D01*
X145995845Y-88425752D02*
X145995845Y-88330514D01*
X145995845Y-88330514D02*
X146043464Y-88187657D01*
X146043464Y-88187657D02*
X146091083Y-88140038D01*
X145995845Y-87806704D02*
X145995845Y-87187657D01*
X145995845Y-87187657D02*
X146376797Y-87520990D01*
X146376797Y-87520990D02*
X146376797Y-87378133D01*
X146376797Y-87378133D02*
X146424416Y-87282895D01*
X146424416Y-87282895D02*
X146472035Y-87235276D01*
X146472035Y-87235276D02*
X146567273Y-87187657D01*
X146567273Y-87187657D02*
X146805368Y-87187657D01*
X146805368Y-87187657D02*
X146900606Y-87235276D01*
X146900606Y-87235276D02*
X146948226Y-87282895D01*
X146948226Y-87282895D02*
X146995845Y-87378133D01*
X146995845Y-87378133D02*
X146995845Y-87663847D01*
X146995845Y-87663847D02*
X146948226Y-87759085D01*
X146948226Y-87759085D02*
X146900606Y-87806704D01*
X162785035Y-98858290D02*
X162785035Y-99572575D01*
X162785035Y-99572575D02*
X162737416Y-99715432D01*
X162737416Y-99715432D02*
X162642178Y-99810671D01*
X162642178Y-99810671D02*
X162499321Y-99858290D01*
X162499321Y-99858290D02*
X162404083Y-99858290D01*
X163785035Y-99858290D02*
X163213607Y-99858290D01*
X163499321Y-99858290D02*
X163499321Y-98858290D01*
X163499321Y-98858290D02*
X163404083Y-99001147D01*
X163404083Y-99001147D02*
X163308845Y-99096385D01*
X163308845Y-99096385D02*
X163213607Y-99144004D01*
X149992718Y-102262495D02*
X150040338Y-102310114D01*
X150040338Y-102310114D02*
X150087957Y-102452971D01*
X150087957Y-102452971D02*
X150087957Y-102548209D01*
X150087957Y-102548209D02*
X150040338Y-102691066D01*
X150040338Y-102691066D02*
X149945099Y-102786304D01*
X149945099Y-102786304D02*
X149849861Y-102833923D01*
X149849861Y-102833923D02*
X149659385Y-102881542D01*
X149659385Y-102881542D02*
X149516528Y-102881542D01*
X149516528Y-102881542D02*
X149326052Y-102833923D01*
X149326052Y-102833923D02*
X149230814Y-102786304D01*
X149230814Y-102786304D02*
X149135576Y-102691066D01*
X149135576Y-102691066D02*
X149087957Y-102548209D01*
X149087957Y-102548209D02*
X149087957Y-102452971D01*
X149087957Y-102452971D02*
X149135576Y-102310114D01*
X149135576Y-102310114D02*
X149183195Y-102262495D01*
X150087957Y-101310114D02*
X150087957Y-101881542D01*
X150087957Y-101595828D02*
X149087957Y-101595828D01*
X149087957Y-101595828D02*
X149230814Y-101691066D01*
X149230814Y-101691066D02*
X149326052Y-101786304D01*
X149326052Y-101786304D02*
X149373671Y-101881542D01*
D12*
%TO.C,R1*%
X148676141Y-96317321D02*
X148676141Y-97771449D01*
X146856141Y-96317321D02*
X146856141Y-97771449D01*
D13*
%TO.C,IC1*%
X150374992Y-97923564D02*
X151901992Y-97923564D01*
X152251992Y-98051564D02*
X155447992Y-98051564D01*
X152251992Y-102955564D02*
X152251992Y-98051564D01*
X155447992Y-98051564D02*
X155447992Y-102955564D01*
X155447992Y-102955564D02*
X152251992Y-102955564D01*
D12*
%TO.C,L1*%
X152214161Y-107019396D02*
X152834161Y-107019396D01*
X152834161Y-105549396D02*
X152834161Y-108489396D01*
X152834161Y-108489396D02*
X159674161Y-108489396D01*
X159674161Y-105549396D02*
X152834161Y-105549396D01*
X159674161Y-108489396D02*
X159674161Y-105549396D01*
X160294161Y-107019396D02*
X159674161Y-107019396D01*
%TO.C,D1*%
X150919492Y-91907963D02*
X151939492Y-91907963D01*
X151939492Y-90437963D02*
X151939492Y-93377963D01*
X151939492Y-93377963D02*
X157379492Y-93377963D01*
X152719492Y-90437963D02*
X152719492Y-93377963D01*
X152839492Y-90437963D02*
X152839492Y-93377963D01*
X152959492Y-90437963D02*
X152959492Y-93377963D01*
X157379492Y-90437963D02*
X151939492Y-90437963D01*
X157379492Y-93377963D02*
X157379492Y-90437963D01*
X158399492Y-91907963D02*
X157379492Y-91907963D01*
%TO.C,C4*%
X155730912Y-84646788D02*
X163890912Y-84646788D01*
X155730912Y-84686788D02*
X163890912Y-84686788D01*
X155730912Y-84726788D02*
X163890912Y-84726788D01*
X155731912Y-84606788D02*
X163889912Y-84606788D01*
X155733912Y-84566788D02*
X163887912Y-84566788D01*
X155734912Y-84526788D02*
X163886912Y-84526788D01*
X155736912Y-84486788D02*
X163884912Y-84486788D01*
X155739912Y-84446788D02*
X163881912Y-84446788D01*
X155742912Y-84406788D02*
X163878912Y-84406788D01*
X155745912Y-84366788D02*
X163875912Y-84366788D01*
X155749912Y-84326788D02*
X163871912Y-84326788D01*
X155753912Y-84286788D02*
X163867912Y-84286788D01*
X155758912Y-84246788D02*
X163862912Y-84246788D01*
X155762912Y-84206788D02*
X163858912Y-84206788D01*
X155768912Y-84166788D02*
X163852912Y-84166788D01*
X155773912Y-84126788D02*
X163847912Y-84126788D01*
X155780912Y-84086788D02*
X163840912Y-84086788D01*
X155786912Y-84046788D02*
X163834912Y-84046788D01*
X155793912Y-84005788D02*
X158770912Y-84005788D01*
X155800912Y-83965788D02*
X158770912Y-83965788D01*
X155808912Y-83925788D02*
X158770912Y-83925788D01*
X155816912Y-83885788D02*
X158770912Y-83885788D01*
X155825912Y-83845788D02*
X158770912Y-83845788D01*
X155834912Y-83805788D02*
X158770912Y-83805788D01*
X155843912Y-83765788D02*
X158770912Y-83765788D01*
X155853912Y-83725788D02*
X158770912Y-83725788D01*
X155863912Y-83685788D02*
X158770912Y-83685788D01*
X155874912Y-83645788D02*
X158770912Y-83645788D01*
X155885912Y-83605788D02*
X158770912Y-83605788D01*
X155896912Y-83565788D02*
X158770912Y-83565788D01*
X155908912Y-83525788D02*
X158770912Y-83525788D01*
X155921912Y-83485788D02*
X158770912Y-83485788D01*
X155933912Y-83445788D02*
X158770912Y-83445788D01*
X155947912Y-83405788D02*
X158770912Y-83405788D01*
X155960912Y-83365788D02*
X158770912Y-83365788D01*
X155975912Y-83325788D02*
X158770912Y-83325788D01*
X155989912Y-83285788D02*
X158770912Y-83285788D01*
X156005912Y-83245788D02*
X158770912Y-83245788D01*
X156020912Y-83205788D02*
X158770912Y-83205788D01*
X156036912Y-83165788D02*
X158770912Y-83165788D01*
X156053912Y-83125788D02*
X158770912Y-83125788D01*
X156070912Y-83085788D02*
X158770912Y-83085788D01*
X156088912Y-83045788D02*
X158770912Y-83045788D01*
X156106912Y-83005788D02*
X158770912Y-83005788D01*
X156124912Y-82965788D02*
X158770912Y-82965788D01*
X156144912Y-82925788D02*
X158770912Y-82925788D01*
X156163912Y-82885788D02*
X158770912Y-82885788D01*
X156183912Y-82845788D02*
X158770912Y-82845788D01*
X156204912Y-82805788D02*
X158770912Y-82805788D01*
X156226912Y-82765788D02*
X158770912Y-82765788D01*
X156248912Y-82725788D02*
X158770912Y-82725788D01*
X156270912Y-82685788D02*
X158770912Y-82685788D01*
X156293912Y-82645788D02*
X158770912Y-82645788D01*
X156317912Y-82605788D02*
X158770912Y-82605788D01*
X156341912Y-82565788D02*
X158770912Y-82565788D01*
X156366912Y-82525788D02*
X158770912Y-82525788D01*
X156392912Y-82485788D02*
X158770912Y-82485788D01*
X156418912Y-82445788D02*
X158770912Y-82445788D01*
X156445912Y-82405788D02*
X158770912Y-82405788D01*
X156472912Y-82365788D02*
X158770912Y-82365788D01*
X156501912Y-82325788D02*
X158770912Y-82325788D01*
X156530912Y-82285788D02*
X158770912Y-82285788D01*
X156560912Y-82245788D02*
X158770912Y-82245788D01*
X156590912Y-82205788D02*
X158770912Y-82205788D01*
X156621912Y-82165788D02*
X158770912Y-82165788D01*
X156654912Y-82125788D02*
X158770912Y-82125788D01*
X156686912Y-82085788D02*
X158770912Y-82085788D01*
X156720912Y-82045788D02*
X158770912Y-82045788D01*
X156755912Y-82005788D02*
X158770912Y-82005788D01*
X156791912Y-81965788D02*
X158770912Y-81965788D01*
X156827912Y-81925788D02*
X162793912Y-81925788D01*
X156865912Y-81885788D02*
X162755912Y-81885788D01*
X156903912Y-81845788D02*
X162717912Y-81845788D01*
X156943912Y-81805788D02*
X162677912Y-81805788D01*
X156984912Y-81765788D02*
X162636912Y-81765788D01*
X157026912Y-81725788D02*
X162594912Y-81725788D01*
X157069912Y-81685788D02*
X162551912Y-81685788D01*
X157095912Y-88736486D02*
X157895912Y-88736486D01*
X157113912Y-81645788D02*
X162507912Y-81645788D01*
X157159912Y-81605788D02*
X162461912Y-81605788D01*
X157206912Y-81565788D02*
X162414912Y-81565788D01*
X157254912Y-81525788D02*
X162366912Y-81525788D01*
X157305912Y-81485788D02*
X162315912Y-81485788D01*
X157356912Y-81445788D02*
X162264912Y-81445788D01*
X157410912Y-81405788D02*
X162210912Y-81405788D01*
X157465912Y-81365788D02*
X162155912Y-81365788D01*
X157495912Y-89136486D02*
X157495912Y-88336486D01*
X157523912Y-81325788D02*
X162097912Y-81325788D01*
X157582912Y-81285788D02*
X162038912Y-81285788D01*
X157644912Y-81245788D02*
X161976912Y-81245788D01*
X157708912Y-81205788D02*
X161912912Y-81205788D01*
X157776912Y-81165788D02*
X161844912Y-81165788D01*
X157846912Y-81125788D02*
X161774912Y-81125788D01*
X157920912Y-81085788D02*
X161700912Y-81085788D01*
X157997912Y-81045788D02*
X161623912Y-81045788D01*
X158079912Y-81005788D02*
X161541912Y-81005788D01*
X158165912Y-80965788D02*
X161455912Y-80965788D01*
X158258912Y-80925788D02*
X161362912Y-80925788D01*
X158357912Y-80885788D02*
X161263912Y-80885788D01*
X158464912Y-80845788D02*
X161156912Y-80845788D01*
X158581912Y-80805788D02*
X161039912Y-80805788D01*
X158712912Y-80765788D02*
X160908912Y-80765788D01*
X158862912Y-80725788D02*
X160758912Y-80725788D01*
X159042912Y-80685788D02*
X160578912Y-80685788D01*
X159277912Y-80645788D02*
X160343912Y-80645788D01*
X160850912Y-81965788D02*
X162829912Y-81965788D01*
X160850912Y-82005788D02*
X162865912Y-82005788D01*
X160850912Y-82045788D02*
X162900912Y-82045788D01*
X160850912Y-82085788D02*
X162934912Y-82085788D01*
X160850912Y-82125788D02*
X162966912Y-82125788D01*
X160850912Y-82165788D02*
X162999912Y-82165788D01*
X160850912Y-82205788D02*
X163030912Y-82205788D01*
X160850912Y-82245788D02*
X163060912Y-82245788D01*
X160850912Y-82285788D02*
X163090912Y-82285788D01*
X160850912Y-82325788D02*
X163119912Y-82325788D01*
X160850912Y-82365788D02*
X163148912Y-82365788D01*
X160850912Y-82405788D02*
X163175912Y-82405788D01*
X160850912Y-82445788D02*
X163202912Y-82445788D01*
X160850912Y-82485788D02*
X163228912Y-82485788D01*
X160850912Y-82525788D02*
X163254912Y-82525788D01*
X160850912Y-82565788D02*
X163279912Y-82565788D01*
X160850912Y-82605788D02*
X163303912Y-82605788D01*
X160850912Y-82645788D02*
X163327912Y-82645788D01*
X160850912Y-82685788D02*
X163350912Y-82685788D01*
X160850912Y-82725788D02*
X163372912Y-82725788D01*
X160850912Y-82765788D02*
X163394912Y-82765788D01*
X160850912Y-82805788D02*
X163416912Y-82805788D01*
X160850912Y-82845788D02*
X163437912Y-82845788D01*
X160850912Y-82885788D02*
X163457912Y-82885788D01*
X160850912Y-82925788D02*
X163476912Y-82925788D01*
X160850912Y-82965788D02*
X163496912Y-82965788D01*
X160850912Y-83005788D02*
X163514912Y-83005788D01*
X160850912Y-83045788D02*
X163532912Y-83045788D01*
X160850912Y-83085788D02*
X163550912Y-83085788D01*
X160850912Y-83125788D02*
X163567912Y-83125788D01*
X160850912Y-83165788D02*
X163584912Y-83165788D01*
X160850912Y-83205788D02*
X163600912Y-83205788D01*
X160850912Y-83245788D02*
X163615912Y-83245788D01*
X160850912Y-83285788D02*
X163631912Y-83285788D01*
X160850912Y-83325788D02*
X163645912Y-83325788D01*
X160850912Y-83365788D02*
X163660912Y-83365788D01*
X160850912Y-83405788D02*
X163673912Y-83405788D01*
X160850912Y-83445788D02*
X163687912Y-83445788D01*
X160850912Y-83485788D02*
X163699912Y-83485788D01*
X160850912Y-83525788D02*
X163712912Y-83525788D01*
X160850912Y-83565788D02*
X163724912Y-83565788D01*
X160850912Y-83605788D02*
X163735912Y-83605788D01*
X160850912Y-83645788D02*
X163746912Y-83645788D01*
X160850912Y-83685788D02*
X163757912Y-83685788D01*
X160850912Y-83725788D02*
X163767912Y-83725788D01*
X160850912Y-83765788D02*
X163777912Y-83765788D01*
X160850912Y-83805788D02*
X163786912Y-83805788D01*
X160850912Y-83845788D02*
X163795912Y-83845788D01*
X160850912Y-83885788D02*
X163804912Y-83885788D01*
X160850912Y-83925788D02*
X163812912Y-83925788D01*
X160850912Y-83965788D02*
X163820912Y-83965788D01*
X160850912Y-84005788D02*
X163827912Y-84005788D01*
X163930912Y-84726788D02*
G75*
G02*
X155690912Y-84726788I-4120000J0D01*
G01*
X155690912Y-84726788D02*
G75*
G02*
X163930912Y-84726788I4120000J0D01*
G01*
%TO.C,C3*%
X146773605Y-84646788D02*
X154933605Y-84646788D01*
X146773605Y-84686788D02*
X154933605Y-84686788D01*
X146773605Y-84726788D02*
X154933605Y-84726788D01*
X146774605Y-84606788D02*
X154932605Y-84606788D01*
X146776605Y-84566788D02*
X154930605Y-84566788D01*
X146777605Y-84526788D02*
X154929605Y-84526788D01*
X146779605Y-84486788D02*
X154927605Y-84486788D01*
X146782605Y-84446788D02*
X154924605Y-84446788D01*
X146785605Y-84406788D02*
X154921605Y-84406788D01*
X146788605Y-84366788D02*
X154918605Y-84366788D01*
X146792605Y-84326788D02*
X154914605Y-84326788D01*
X146796605Y-84286788D02*
X154910605Y-84286788D01*
X146801605Y-84246788D02*
X154905605Y-84246788D01*
X146805605Y-84206788D02*
X154901605Y-84206788D01*
X146811605Y-84166788D02*
X154895605Y-84166788D01*
X146816605Y-84126788D02*
X154890605Y-84126788D01*
X146823605Y-84086788D02*
X154883605Y-84086788D01*
X146829605Y-84046788D02*
X154877605Y-84046788D01*
X146836605Y-84005788D02*
X149813605Y-84005788D01*
X146843605Y-83965788D02*
X149813605Y-83965788D01*
X146851605Y-83925788D02*
X149813605Y-83925788D01*
X146859605Y-83885788D02*
X149813605Y-83885788D01*
X146868605Y-83845788D02*
X149813605Y-83845788D01*
X146877605Y-83805788D02*
X149813605Y-83805788D01*
X146886605Y-83765788D02*
X149813605Y-83765788D01*
X146896605Y-83725788D02*
X149813605Y-83725788D01*
X146906605Y-83685788D02*
X149813605Y-83685788D01*
X146917605Y-83645788D02*
X149813605Y-83645788D01*
X146928605Y-83605788D02*
X149813605Y-83605788D01*
X146939605Y-83565788D02*
X149813605Y-83565788D01*
X146951605Y-83525788D02*
X149813605Y-83525788D01*
X146964605Y-83485788D02*
X149813605Y-83485788D01*
X146976605Y-83445788D02*
X149813605Y-83445788D01*
X146990605Y-83405788D02*
X149813605Y-83405788D01*
X147003605Y-83365788D02*
X149813605Y-83365788D01*
X147018605Y-83325788D02*
X149813605Y-83325788D01*
X147032605Y-83285788D02*
X149813605Y-83285788D01*
X147048605Y-83245788D02*
X149813605Y-83245788D01*
X147063605Y-83205788D02*
X149813605Y-83205788D01*
X147079605Y-83165788D02*
X149813605Y-83165788D01*
X147096605Y-83125788D02*
X149813605Y-83125788D01*
X147113605Y-83085788D02*
X149813605Y-83085788D01*
X147131605Y-83045788D02*
X149813605Y-83045788D01*
X147149605Y-83005788D02*
X149813605Y-83005788D01*
X147167605Y-82965788D02*
X149813605Y-82965788D01*
X147187605Y-82925788D02*
X149813605Y-82925788D01*
X147206605Y-82885788D02*
X149813605Y-82885788D01*
X147226605Y-82845788D02*
X149813605Y-82845788D01*
X147247605Y-82805788D02*
X149813605Y-82805788D01*
X147269605Y-82765788D02*
X149813605Y-82765788D01*
X147291605Y-82725788D02*
X149813605Y-82725788D01*
X147313605Y-82685788D02*
X149813605Y-82685788D01*
X147336605Y-82645788D02*
X149813605Y-82645788D01*
X147360605Y-82605788D02*
X149813605Y-82605788D01*
X147384605Y-82565788D02*
X149813605Y-82565788D01*
X147409605Y-82525788D02*
X149813605Y-82525788D01*
X147435605Y-82485788D02*
X149813605Y-82485788D01*
X147461605Y-82445788D02*
X149813605Y-82445788D01*
X147488605Y-82405788D02*
X149813605Y-82405788D01*
X147515605Y-82365788D02*
X149813605Y-82365788D01*
X147544605Y-82325788D02*
X149813605Y-82325788D01*
X147573605Y-82285788D02*
X149813605Y-82285788D01*
X147603605Y-82245788D02*
X149813605Y-82245788D01*
X147633605Y-82205788D02*
X149813605Y-82205788D01*
X147664605Y-82165788D02*
X149813605Y-82165788D01*
X147697605Y-82125788D02*
X149813605Y-82125788D01*
X147729605Y-82085788D02*
X149813605Y-82085788D01*
X147763605Y-82045788D02*
X149813605Y-82045788D01*
X147798605Y-82005788D02*
X149813605Y-82005788D01*
X147834605Y-81965788D02*
X149813605Y-81965788D01*
X147870605Y-81925788D02*
X153836605Y-81925788D01*
X147908605Y-81885788D02*
X153798605Y-81885788D01*
X147946605Y-81845788D02*
X153760605Y-81845788D01*
X147986605Y-81805788D02*
X153720605Y-81805788D01*
X148027605Y-81765788D02*
X153679605Y-81765788D01*
X148069605Y-81725788D02*
X153637605Y-81725788D01*
X148112605Y-81685788D02*
X153594605Y-81685788D01*
X148138605Y-88736486D02*
X148938605Y-88736486D01*
X148156605Y-81645788D02*
X153550605Y-81645788D01*
X148202605Y-81605788D02*
X153504605Y-81605788D01*
X148249605Y-81565788D02*
X153457605Y-81565788D01*
X148297605Y-81525788D02*
X153409605Y-81525788D01*
X148348605Y-81485788D02*
X153358605Y-81485788D01*
X148399605Y-81445788D02*
X153307605Y-81445788D01*
X148453605Y-81405788D02*
X153253605Y-81405788D01*
X148508605Y-81365788D02*
X153198605Y-81365788D01*
X148538605Y-89136486D02*
X148538605Y-88336486D01*
X148566605Y-81325788D02*
X153140605Y-81325788D01*
X148625605Y-81285788D02*
X153081605Y-81285788D01*
X148687605Y-81245788D02*
X153019605Y-81245788D01*
X148751605Y-81205788D02*
X152955605Y-81205788D01*
X148819605Y-81165788D02*
X152887605Y-81165788D01*
X148889605Y-81125788D02*
X152817605Y-81125788D01*
X148963605Y-81085788D02*
X152743605Y-81085788D01*
X149040605Y-81045788D02*
X152666605Y-81045788D01*
X149122605Y-81005788D02*
X152584605Y-81005788D01*
X149208605Y-80965788D02*
X152498605Y-80965788D01*
X149301605Y-80925788D02*
X152405605Y-80925788D01*
X149400605Y-80885788D02*
X152306605Y-80885788D01*
X149507605Y-80845788D02*
X152199605Y-80845788D01*
X149624605Y-80805788D02*
X152082605Y-80805788D01*
X149755605Y-80765788D02*
X151951605Y-80765788D01*
X149905605Y-80725788D02*
X151801605Y-80725788D01*
X150085605Y-80685788D02*
X151621605Y-80685788D01*
X150320605Y-80645788D02*
X151386605Y-80645788D01*
X151893605Y-81965788D02*
X153872605Y-81965788D01*
X151893605Y-82005788D02*
X153908605Y-82005788D01*
X151893605Y-82045788D02*
X153943605Y-82045788D01*
X151893605Y-82085788D02*
X153977605Y-82085788D01*
X151893605Y-82125788D02*
X154009605Y-82125788D01*
X151893605Y-82165788D02*
X154042605Y-82165788D01*
X151893605Y-82205788D02*
X154073605Y-82205788D01*
X151893605Y-82245788D02*
X154103605Y-82245788D01*
X151893605Y-82285788D02*
X154133605Y-82285788D01*
X151893605Y-82325788D02*
X154162605Y-82325788D01*
X151893605Y-82365788D02*
X154191605Y-82365788D01*
X151893605Y-82405788D02*
X154218605Y-82405788D01*
X151893605Y-82445788D02*
X154245605Y-82445788D01*
X151893605Y-82485788D02*
X154271605Y-82485788D01*
X151893605Y-82525788D02*
X154297605Y-82525788D01*
X151893605Y-82565788D02*
X154322605Y-82565788D01*
X151893605Y-82605788D02*
X154346605Y-82605788D01*
X151893605Y-82645788D02*
X154370605Y-82645788D01*
X151893605Y-82685788D02*
X154393605Y-82685788D01*
X151893605Y-82725788D02*
X154415605Y-82725788D01*
X151893605Y-82765788D02*
X154437605Y-82765788D01*
X151893605Y-82805788D02*
X154459605Y-82805788D01*
X151893605Y-82845788D02*
X154480605Y-82845788D01*
X151893605Y-82885788D02*
X154500605Y-82885788D01*
X151893605Y-82925788D02*
X154519605Y-82925788D01*
X151893605Y-82965788D02*
X154539605Y-82965788D01*
X151893605Y-83005788D02*
X154557605Y-83005788D01*
X151893605Y-83045788D02*
X154575605Y-83045788D01*
X151893605Y-83085788D02*
X154593605Y-83085788D01*
X151893605Y-83125788D02*
X154610605Y-83125788D01*
X151893605Y-83165788D02*
X154627605Y-83165788D01*
X151893605Y-83205788D02*
X154643605Y-83205788D01*
X151893605Y-83245788D02*
X154658605Y-83245788D01*
X151893605Y-83285788D02*
X154674605Y-83285788D01*
X151893605Y-83325788D02*
X154688605Y-83325788D01*
X151893605Y-83365788D02*
X154703605Y-83365788D01*
X151893605Y-83405788D02*
X154716605Y-83405788D01*
X151893605Y-83445788D02*
X154730605Y-83445788D01*
X151893605Y-83485788D02*
X154742605Y-83485788D01*
X151893605Y-83525788D02*
X154755605Y-83525788D01*
X151893605Y-83565788D02*
X154767605Y-83565788D01*
X151893605Y-83605788D02*
X154778605Y-83605788D01*
X151893605Y-83645788D02*
X154789605Y-83645788D01*
X151893605Y-83685788D02*
X154800605Y-83685788D01*
X151893605Y-83725788D02*
X154810605Y-83725788D01*
X151893605Y-83765788D02*
X154820605Y-83765788D01*
X151893605Y-83805788D02*
X154829605Y-83805788D01*
X151893605Y-83845788D02*
X154838605Y-83845788D01*
X151893605Y-83885788D02*
X154847605Y-83885788D01*
X151893605Y-83925788D02*
X154855605Y-83925788D01*
X151893605Y-83965788D02*
X154863605Y-83965788D01*
X151893605Y-84005788D02*
X154870605Y-84005788D01*
X154973605Y-84726788D02*
G75*
G02*
X146733605Y-84726788I-4120000J0D01*
G01*
X146733605Y-84726788D02*
G75*
G02*
X154973605Y-84726788I4120000J0D01*
G01*
%TO.C,J1*%
X161788369Y-95803471D02*
X161788369Y-90663471D01*
X164448369Y-90663471D02*
X161788369Y-90663471D01*
X164448369Y-95803471D02*
X161788369Y-95803471D01*
X164448369Y-95803471D02*
X164448369Y-90663471D01*
X164448369Y-97073471D02*
X164448369Y-98403471D01*
X164448369Y-98403471D02*
X163118369Y-98403471D01*
%TO.C,C1*%
X146873138Y-101384577D02*
X146873138Y-102807081D01*
X148693138Y-101384577D02*
X148693138Y-102807081D01*
%TD*%
%LPC*%
D14*
%TO.C,R1*%
X147766141Y-95494385D03*
X147766141Y-98594385D03*
%TD*%
D15*
%TO.C,IC1*%
X151138992Y-98598564D03*
X151138992Y-99868564D03*
X151138992Y-101138564D03*
X151138992Y-102408564D03*
X156560992Y-102408564D03*
X156560992Y-101138564D03*
X156560992Y-99868564D03*
X156560992Y-98598564D03*
%TD*%
D16*
%TO.C,L1*%
X161334161Y-107019396D03*
D17*
X151174161Y-107019396D03*
%TD*%
D18*
%TO.C,D1*%
X149579492Y-91907963D03*
D19*
X159739492Y-91907963D03*
%TD*%
D20*
%TO.C,C4*%
X159810912Y-86476788D03*
D16*
X159810912Y-82976788D03*
%TD*%
D20*
%TO.C,C3*%
X150853605Y-86476788D03*
D16*
X150853605Y-82976788D03*
%TD*%
D21*
%TO.C,J1*%
X163118369Y-97073471D03*
D22*
X163118369Y-94533471D03*
X163118369Y-91993471D03*
%TD*%
D23*
%TO.C,C1*%
X147783138Y-100533329D03*
X147783138Y-103658329D03*
%TD*%
%LPD*%
M02*
